<svg width="14" height="12" viewBox="0 0 14 12" fill="none" xmlns="http://www.w3.org/2000/svg">
<path d="M6.69095 5.87135C6.86108 6.04478 7.13815 6.04478 7.31071 5.87135L9.95744 3.1949C10.7254 2.41681 10.6817 1.1278 9.82133 0.410644C9.07276 -0.215111 7.9572 -0.102616 7.27182 0.591105L6.99961 0.865312L6.72984 0.593449C6.04446 -0.102616 4.92889 -0.215111 4.18032 0.410644C3.32239 1.1278 3.27621 2.41681 4.04422 3.1949L6.69095 5.87135ZM13.7392 7.69003C13.4524 7.43925 13.0052 7.45566 12.7038 7.69003L10.4581 9.42198C10.1835 9.63526 9.84078 9.7501 9.48593 9.7501H6.61075C6.39687 9.7501 6.22188 9.58135 6.22188 9.37511C6.22188 9.16887 6.39687 9.00013 6.61075 9.00013H8.51377C8.9002 9.00013 9.25991 8.74467 9.3231 8.37671C9.4033 7.90798 9.02902 7.50019 8.55508 7.50019H4.66641C4.0102 7.50019 3.37586 7.71815 2.86547 8.11657L1.73532 9.00013H0.388867C0.17499 9.00013 0 9.16887 0 9.37511V11.625C0 11.8313 0.17499 12 0.388867 12H9.06061C9.41302 12 9.75571 11.8852 10.0328 11.6719L13.7076 8.83607C14.077 8.55249 14.1062 8.00876 13.7392 7.69003Z" fill="#989DA3"/>
</svg>
