<?xml version="1.0" encoding="UTF-8"?>
<!-- Generator: visioncortex VTracer 0.6.3 -->
<svg version="1.1" xmlns="http://www.w3.org/2000/svg" width="1280" height="1280">
<path d="M0 0 C1.31 -0.01 2.62 -0.01 3.97 -0.02 C5.41 -0.02 6.86 -0.02 8.3 -0.02 C9.8 -0.03 11.29 -0.03 12.78 -0.03 C15.92 -0.04 19.07 -0.04 22.21 -0.04 C25.39 -0.04 28.58 -0.05 31.76 -0.06 C49.52 -0.14 67.13 -0.05 84.79 2.15 C85.56 2.24 86.34 2.34 87.13 2.43 C89.02 2.67 90.9 2.91 92.79 3.15 C92.79 3.81 92.79 4.47 92.79 5.15 C97.08 5.15 101.37 5.15 105.79 5.15 C105.79 5.81 105.79 6.47 105.79 7.15 C106.67 7.1 107.56 7.06 108.48 7.02 C111.88 7.15 113.68 7.87 116.79 9.15 C118.97 9.77 121.16 10.37 123.35 10.96 C129.07 12.56 134.44 14.54 139.88 16.91 C144.44 18.85 149.11 20.5 153.79 22.15 C153.79 22.81 153.79 23.47 153.79 24.15 C154.32 24.25 154.86 24.35 155.41 24.46 C161.27 26.15 166.37 29.66 171.52 32.84 C173.83 34.27 173.83 34.27 176.79 35.15 C177.45 36.14 178.11 37.13 178.79 38.15 C179.78 38.48 180.77 38.81 181.79 39.15 C181.79 39.81 181.79 40.47 181.79 41.15 C182.37 41.23 182.94 41.31 183.54 41.4 C187.22 42.62 189.22 45.53 191.79 48.33 C193.94 50.29 195.05 50.47 197.79 51.15 C199.6 52.85 199.6 52.85 201.35 54.96 C202.22 55.99 202.22 55.99 203.1 57.04 C204.22 58.43 205.3 59.85 206.35 61.29 C207.8 63.32 207.8 63.32 210.29 65.08 C212.94 67.27 214.07 69.21 215.79 72.15 C216.67 73.01 217.56 73.88 218.48 74.77 C220.79 77.15 220.79 77.15 220.79 80.15 C221.45 80.15 222.11 80.15 222.79 80.15 C223.81 81.8 224.8 83.47 225.79 85.15 C226.99 86.54 226.99 86.54 228.23 87.96 C230.71 90.83 232.26 93.86 233.8 97.31 C234.71 99.23 234.71 99.23 236.41 100.63 C237.79 102.15 237.79 102.15 237.79 106.15 C238.45 106.15 239.11 106.15 239.79 106.15 C241.82 109.87 242.79 111.81 242.79 116.15 C243.45 116.15 244.11 116.15 244.79 116.15 C246.82 119.87 247.79 121.81 247.79 126.15 C248.45 126.15 249.11 126.15 249.79 126.15 C251.14 128.85 250.85 131.15 250.79 134.15 C251.45 134.15 252.11 134.15 252.79 134.15 C252.79 135.47 252.79 136.79 252.79 138.15 C253.45 138.15 254.11 138.15 254.79 138.15 C255.19 139.88 255.19 139.88 255.6 141.65 C256.47 145.13 257.62 148.4 258.94 151.74 C260.04 154.86 260.87 158.02 261.73 161.21 C263.18 166.45 264.93 170.55 267.79 175.15 C267.79 176.14 267.79 177.13 267.79 178.15 C268.45 178.15 269.11 178.15 269.79 178.15 C270.12 180.79 270.45 183.43 270.79 186.15 C271.45 186.15 272.11 186.15 272.79 186.15 C272.79 187.8 272.79 189.45 272.79 191.15 C273.78 191.48 274.77 191.81 275.79 192.15 C276.67 194.36 276.67 194.36 277.35 197.08 C278.3 201.03 278.3 201.03 280.79 204.15 C281.52 206.02 282.17 207.92 282.79 209.83 C283.14 210.91 283.49 212 283.85 213.11 C284.55 215.36 285.21 217.63 285.85 219.9 C286.75 223.02 287.84 226 289 229.04 C291.28 235.1 292.89 240.71 293.79 247.15 C294.45 248.14 295.11 249.13 295.79 250.15 C295.87 252.48 295.88 254.81 295.79 257.15 C296.59 257.49 296.59 257.49 297.41 257.83 C301.04 259.84 304.9 262.37 306.79 266.15 C307.76 266.64 308.73 267.14 309.73 267.65 C314.4 270.18 317.74 273.96 321.36 277.81 C323.71 280.07 325.96 281.54 328.79 283.15 C330.5 284.76 332.16 286.44 333.79 288.15 C335.29 289.65 336.79 291.15 338.29 292.65 C339.07 293.43 339.85 294.21 340.65 295.01 C342.27 296.63 343.9 298.23 345.54 299.83 C347.28 301.62 348.84 303.4 350.41 305.33 C352.67 308.26 352.67 308.26 355.79 310.15 C356.38 311.2 356.38 311.2 356.98 312.27 C358.68 314.97 360.31 316.71 362.6 318.9 C366.17 322.35 368.86 325.94 371.46 330.16 C372.75 332.09 374.14 333.54 375.79 335.15 C376.79 336.81 377.79 338.48 378.79 340.15 C380.11 341.82 381.45 343.49 382.79 345.15 C383.72 346.32 384.63 347.51 385.54 348.71 C386.18 349.55 386.18 349.55 386.83 350.4 C387.79 352.15 387.79 352.15 387.79 356.15 C388.75 356.49 388.75 356.49 389.73 356.83 C391.79 358.15 391.79 358.15 392.54 360.77 C392.66 361.95 392.66 361.95 392.79 363.15 C393.45 363.15 394.11 363.15 394.79 363.15 C395.22 364.03 395.65 364.92 396.1 365.83 C398.11 369.78 400.33 373.46 402.79 377.15 C402.79 378.47 402.79 379.79 402.79 381.15 C403.78 381.48 404.77 381.81 405.79 382.15 C405.79 383.47 405.79 384.79 405.79 386.15 C406.41 386.4 407.02 386.65 407.66 386.91 C410.13 388.34 410.69 389.28 411.86 391.85 C412.2 392.58 412.54 393.32 412.89 394.07 C413.22 394.84 413.56 395.61 413.91 396.4 C414.26 397.15 414.61 397.9 414.96 398.67 C416.42 401.86 417.74 405 418.85 408.33 C419.87 411.4 421.22 414.1 422.73 416.96 C424.9 421.23 426.67 425.36 428.08 429.93 C428.87 432.39 429.81 434.76 430.79 437.15 C435.43 448.63 435.43 448.63 436.29 454.71 C436.77 458.02 437.74 460.75 438.96 463.85 C441.43 470.71 443.02 477.83 443.48 485.11 C443.71 487.24 443.71 487.24 444.78 489.45 C446.04 492.81 446.17 495.81 446.35 499.4 C446.19 503.59 446.19 503.59 447.79 507.15 C448 509.96 448.16 512.76 448.29 515.58 C448.3 521.03 448.3 521.03 449.79 526.15 C449.89 528.84 449.93 531.51 449.91 534.21 C449.92 534.95 449.92 535.7 449.92 536.47 C449.91 542.02 449.91 542.02 448.79 543.15 C448.64 545.63 448.55 548.1 448.51 550.59 C448.49 551.35 448.47 552.11 448.45 552.9 C448.39 555.36 448.34 557.81 448.29 560.27 C448.04 571.59 447.66 582.85 446.79 594.15 C446.13 593.82 445.47 593.49 444.79 593.15 C444.46 594.8 444.13 596.45 443.79 598.15 C444.45 598.48 445.11 598.81 445.79 599.15 C444.58 610.89 443.28 622.53 440.23 633.96 C440.02 634.74 439.81 635.53 439.59 636.34 C438.54 640.09 437.62 643.31 434.79 646.15 C435.12 647.14 435.45 648.13 435.79 649.15 C434.54 651.08 434.54 651.08 432.79 653.15 C430.59 656.02 430.59 656.02 428.79 659.15 C429.45 659.15 430.11 659.15 430.79 659.15 C430.79 659.81 430.79 660.47 430.79 661.15 C429.8 661.15 428.81 661.15 427.79 661.15 C428.12 661.95 428.12 661.95 428.46 662.78 C429.29 668.75 423.67 675.89 420.6 680.9 C420 681.64 419.4 682.38 418.79 683.15 C417.8 683.15 416.81 683.15 415.79 683.15 C416.12 684.14 416.45 685.13 416.79 686.15 C416.46 687.14 416.13 688.13 415.79 689.15 C414.8 689.15 413.81 689.15 412.79 689.15 C413.12 690.14 413.45 691.13 413.79 692.15 C411.54 695.33 411.54 695.33 408.79 698.15 C407.8 698.15 406.81 698.15 405.79 698.15 C405.94 699.17 405.94 699.17 406.1 700.21 C405.66 704.32 403.62 707.17 400.79 710.15 C400.13 710.15 399.47 710.15 398.79 710.15 C398.39 711.03 398.39 711.03 397.99 711.94 C396.74 714.23 395.48 715.62 393.6 717.4 C390.31 720.57 387.37 723.92 384.46 727.45 C382.69 729.25 381.05 730.07 378.79 731.15 C378.5 731.74 378.21 732.34 377.91 732.96 C376.21 736.28 373.77 737.91 370.79 740.15 C370.13 740.15 369.47 740.15 368.79 740.15 C368.46 741.14 368.13 742.13 367.79 743.15 C365.82 744.52 363.81 745.85 361.79 747.15 C360.33 748.35 358.87 749.56 357.42 750.79 C352.46 754.91 347.2 758.63 341.79 762.15 C341.13 761.82 340.47 761.49 339.79 761.15 C341.11 760.49 342.43 759.83 343.79 759.15 C342.8 759.15 341.81 759.15 340.79 759.15 C340.13 760.8 339.47 762.45 338.79 764.15 C337.14 763.82 335.49 763.49 333.79 763.15 C333.79 763.81 333.79 764.47 333.79 765.15 C333.13 765.48 332.47 765.81 331.79 766.15 C331.49 766.77 331.19 767.4 330.89 768.05 C328.03 773.49 320.4 775.9 314.96 778.06 C312.25 779.42 310.13 781.22 307.79 783.15 C287.72 797.15 287.72 797.15 278.79 797.15 C278.46 798.14 278.13 799.13 277.79 800.15 C275.72 800.88 275.72 800.88 273.23 801.33 C271.99 801.57 271.99 801.57 270.72 801.81 C270.08 801.92 269.45 802.03 268.79 802.15 C268.79 802.81 268.79 803.47 268.79 804.15 C267.8 804.41 266.81 804.68 265.8 804.95 C264.5 805.31 263.21 805.66 261.91 806.02 C261.26 806.19 260.61 806.37 259.94 806.55 C255.98 807.64 255.98 807.64 252.79 810.15 C250.66 810.71 248.51 811.2 246.35 811.65 C242.49 812.44 240.09 812.94 236.79 815.15 C234.12 815.89 231.48 816.58 228.79 817.21 C223.24 818.52 223.24 818.52 217.79 820.15 C214.66 820.45 211.54 820.65 208.41 820.86 C205.86 820.86 205.86 820.86 204.79 822.15 C201.97 822.36 199.17 822.52 196.35 822.65 C190.9 822.65 190.9 822.65 185.79 824.15 C178.26 825.22 170.69 825.3 163.1 825.27 C162.12 825.27 161.14 825.28 160.13 825.28 C144.9 825.26 144.9 825.26 142.79 823.15 C141.46 823 140.12 822.92 138.79 822.86 C137.58 822.81 137.58 822.81 136.35 822.75 C135.5 822.72 134.66 822.68 133.79 822.65 C132.12 822.58 130.45 822.5 128.79 822.43 C127.67 822.38 127.67 822.38 126.54 822.33 C124.79 822.15 124.79 822.15 123.79 821.15 C121.29 820.77 118.8 820.44 116.29 820.15 C108.92 819.28 108.92 819.28 107.79 818.15 C106.46 817.94 105.13 817.78 103.79 817.65 C99.9 817.26 99.9 817.26 98.79 816.15 C97.31 815.84 95.83 815.58 94.35 815.33 C89.64 814.44 85.49 812.97 81.11 811.05 C78.68 810.1 76.34 809.64 73.79 809.15 C72.09 808.41 70.39 807.67 68.7 806.91 C65.48 805.62 62.17 804.92 58.79 804.15 C58.79 803.49 58.79 802.83 58.79 802.15 C58.07 802.03 57.34 801.92 56.6 801.8 C53.68 801.12 51.44 800.1 48.79 798.71 C45.51 796.99 42.25 795.47 38.79 794.15 C38.79 793.49 38.79 792.83 38.79 792.15 C38.07 792.02 37.34 791.9 36.6 791.77 C31.9 790.73 27.75 788.69 23.48 786.52 C22.59 786.07 21.71 785.63 20.8 785.17 C20.14 784.83 19.47 784.49 18.79 784.15 C18.79 783.49 18.79 782.83 18.79 782.15 C18.08 782.06 17.37 781.98 16.64 781.9 C13.12 780.97 11.03 779.36 8.16 777.15 C4.26 774.12 4.26 774.12 -0.21 772.15 C-0.21 771.49 -0.21 770.83 -0.21 770.15 C-1.02 770.02 -1.82 769.9 -2.65 769.77 C-3.5 769.56 -4.34 769.36 -5.21 769.15 C-5.54 768.49 -5.87 767.83 -6.21 767.15 C-7.54 766.34 -8.9 765.6 -10.27 764.9 C-14.87 762.41 -19.37 759.72 -23.21 756.15 C-23.21 755.49 -23.21 754.83 -23.21 754.15 C-24.2 754.15 -25.19 754.15 -26.21 754.15 C-26.87 753.49 -27.53 752.83 -28.21 752.15 C-29.93 750.72 -31.66 749.3 -33.4 747.9 C-35.34 746.31 -37.27 744.73 -39.21 743.15 C-39.91 742.58 -40.6 742.01 -41.32 741.43 C-45.1 738.28 -48.13 734.98 -51.21 731.15 C-53.55 728.65 -56.04 726.42 -58.65 724.21 C-61.66 721.64 -64.54 719.07 -67.21 716.15 C-67.21 715.49 -67.21 714.83 -67.21 714.15 C-67.87 714.15 -68.53 714.15 -69.21 714.15 C-69.21 713.49 -69.21 712.83 -69.21 712.15 C-69.87 712.15 -70.53 712.15 -71.21 712.15 C-72.83 710.35 -72.83 710.35 -74.65 707.96 C-75.27 707.14 -75.89 706.32 -76.53 705.48 C-78.24 703.11 -79.72 700.65 -81.21 698.15 C-81.87 697.82 -82.53 697.49 -83.21 697.15 C-83.44 696.44 -83.67 695.74 -83.9 695.02 C-85.2 692.17 -86.23 691 -88.46 688.9 C-91.82 685.69 -94.26 682.3 -96.75 678.39 C-98.13 676.27 -99.6 674.27 -101.15 672.27 C-104.23 668.23 -106.92 663.98 -109.6 659.66 C-111.11 657.21 -111.11 657.21 -112.63 655.34 C-115.03 652.01 -116.86 648.4 -118.77 644.77 C-119.17 644.03 -119.57 643.29 -119.98 642.52 C-121.71 639.25 -123.2 636.19 -124.36 632.67 C-124.93 629.99 -124.93 629.99 -127.21 629.15 C-128.43 626.76 -129.56 624.4 -130.65 621.96 C-131.25 620.63 -131.85 619.3 -132.46 617.98 C-132.75 617.33 -133.04 616.68 -133.34 616.02 C-134.15 614.27 -135.04 612.55 -135.93 610.84 C-137.21 608.15 -137.21 608.15 -137.21 605.15 C-137.87 604.82 -138.53 604.49 -139.21 604.15 C-139.94 602.17 -140.59 600.16 -141.21 598.15 C-141.75 596.73 -142.29 595.31 -142.84 593.9 C-144.21 590.15 -144.21 590.15 -144.21 588.15 C-144.87 587.82 -145.53 587.49 -146.21 587.15 C-145.88 586.49 -145.55 585.83 -145.21 585.15 C-145.87 584.82 -146.53 584.49 -147.21 584.15 C-147.94 582.11 -148.65 580.07 -149.29 578.01 C-150.36 574.69 -151.53 571.42 -152.71 568.15 C-153.55 565.81 -154.38 563.48 -155.21 561.15 C-155.68 559.83 -155.68 559.83 -156.17 558.49 C-157.37 555.03 -158.34 551.8 -158.77 548.15 C-158.99 546.66 -158.99 546.66 -159.21 545.15 C-159.87 544.82 -160.53 544.49 -161.21 544.15 C-161.61 541.82 -161.72 539.53 -161.87 537.18 C-161.98 536.51 -162.1 535.84 -162.21 535.15 C-162.87 534.82 -163.53 534.49 -164.21 534.15 C-164.96 532.29 -164.96 532.29 -165.65 529.96 C-166.86 526.12 -168.32 522.71 -170.21 519.15 C-170.94 517.69 -171.67 516.23 -172.4 514.77 C-172.82 513.92 -173.25 513.07 -173.69 512.19 C-181.25 497.07 -181.25 497.07 -182.22 495.13 C-182.91 493.74 -183.61 492.35 -184.31 490.96 C-184.85 489.89 -184.85 489.89 -185.4 488.81 C-185.72 488.16 -186.04 487.52 -186.38 486.86 C-187.45 484.66 -188.33 482.42 -189.21 480.15 C-189.85 478.71 -190.5 477.27 -191.15 475.83 C-192.71 472.33 -194.14 468.81 -195.46 465.21 C-196.13 463.36 -196.83 461.51 -197.52 459.67 C-199.63 454.05 -201.67 448.41 -203.71 442.77 C-204.1 441.7 -204.49 440.63 -204.9 439.52 C-207.21 433.11 -209.34 426.69 -211.21 420.15 C-211.55 419 -211.88 417.85 -212.22 416.67 C-215.93 403.46 -219.33 390.22 -222.02 376.77 C-222.23 375.74 -222.44 374.72 -222.65 373.66 C-223.67 368.46 -224.48 363.31 -225 358.05 C-225.26 355.71 -225.72 353.44 -226.21 351.15 C-226.56 348.92 -226.89 346.69 -227.21 344.46 C-227.38 343.32 -227.54 342.18 -227.71 341.01 C-228.95 331.44 -229.36 322.07 -229.34 312.41 C-229.35 311.01 -229.35 309.61 -229.35 308.2 C-229.35 305.28 -229.35 302.36 -229.34 299.43 C-229.34 295.7 -229.34 291.97 -229.35 288.24 C-229.35 285.34 -229.35 282.45 -229.35 279.56 C-229.35 278.18 -229.35 276.81 -229.35 275.43 C-229.35 273.51 -229.35 271.58 -229.34 269.66 C-229.34 268.57 -229.34 267.47 -229.34 266.35 C-229.2 262.89 -228.75 259.56 -228.21 256.15 C-228.04 254.64 -227.87 253.14 -227.71 251.63 C-227.63 250.85 -227.55 250.08 -227.46 249.28 C-227.29 247.67 -227.13 246.07 -226.96 244.47 C-226.88 243.69 -226.8 242.92 -226.71 242.13 C-226.64 241.44 -226.57 240.74 -226.49 240.03 C-226.21 238.15 -226.21 238.15 -225.21 235.15 C-225.01 233.48 -224.85 231.81 -224.71 230.15 C-224.47 227.21 -224.15 224.96 -223.21 222.15 C-222.67 219.28 -222.19 216.41 -221.71 213.54 C-221.21 211.15 -221.21 211.15 -220.21 210.15 C-219.98 208.18 -219.75 206.21 -219.52 204.24 C-219.1 201.4 -218.15 198.86 -217.21 196.15 C-216.45 193.05 -215.71 189.96 -214.99 186.85 C-214.21 184.15 -214.21 184.15 -212.21 181.15 C-211.71 179.43 -211.25 177.7 -210.84 175.96 C-209.7 171.6 -208.25 167.87 -206.12 163.92 C-204.84 161.43 -204.06 158.81 -203.21 156.15 C-202.55 154.81 -201.88 153.48 -201.21 152.15 C-201.21 151.49 -201.21 150.83 -201.21 150.15 C-200.55 150.15 -199.89 150.15 -199.21 150.15 C-199.09 149.61 -198.96 149.07 -198.84 148.52 C-198.09 145.68 -197.16 142.92 -196.21 140.15 C-195.55 140.15 -194.89 140.15 -194.21 140.15 C-194.03 139.34 -194.03 139.34 -193.84 138.52 C-193.09 135.68 -192.16 132.92 -191.21 130.15 C-190.55 130.15 -189.89 130.15 -189.21 130.15 C-189.09 129.57 -188.97 129 -188.84 128.41 C-188.18 126.05 -187.27 124.07 -186.15 121.9 C-185.79 121.19 -185.42 120.48 -185.05 119.75 C-184.77 119.22 -184.5 118.69 -184.21 118.15 C-183.55 118.15 -182.89 118.15 -182.21 118.15 C-181.88 116.5 -181.55 114.85 -181.21 113.15 C-180.55 113.15 -179.89 113.15 -179.21 113.15 C-179.03 112 -179.03 112 -178.84 110.83 C-178.21 108.15 -178.21 108.15 -176.21 105.15 C-175.55 105.15 -174.89 105.15 -174.21 105.15 C-173.99 104.44 -173.76 103.74 -173.52 103.02 C-171.93 99.52 -169.7 97.06 -167.21 94.15 C-166.76 93.34 -166.3 92.54 -165.84 91.71 C-163.95 88.74 -161.72 86.63 -159.13 84.28 C-157.42 82.38 -156.33 80.71 -155.07 78.52 C-151.77 73.11 -147.39 68.88 -142.9 64.46 C-141.67 63.22 -141.67 63.22 -140.42 61.95 C-136.19 57.73 -132.09 54.15 -126.91 51.15 C-124.75 49.87 -122.94 48.34 -121.09 46.65 C-120.1 45.76 -120.1 45.76 -119.09 44.86 C-118.47 44.29 -117.85 43.73 -117.21 43.15 C-113.99 40.25 -111.49 38.14 -107.21 37.15 C-106.59 36.53 -105.97 35.91 -105.34 35.27 C-102.85 32.78 -100.42 31.54 -97.21 30.15 C-96.55 30.15 -95.89 30.15 -95.21 30.15 C-95.21 29.49 -95.21 28.83 -95.21 28.15 C-92.66 26.8 -90.09 25.47 -87.52 24.15 C-86.8 23.76 -86.08 23.38 -85.34 22.99 C-81.51 21.03 -78.64 19.59 -74.21 20.15 C-74.21 19.49 -74.21 18.83 -74.21 18.15 C-73.14 17.86 -72.07 17.57 -70.96 17.27 C-67.38 16.32 -67.38 16.32 -64.9 14.96 C-64.34 14.69 -63.79 14.42 -63.21 14.15 C-62.22 14.64 -62.22 14.64 -61.21 15.15 C-61.21 14.49 -61.21 13.83 -61.21 13.15 C-58.57 12.49 -55.93 11.83 -53.21 11.15 C-53.21 10.82 -53.21 10.49 -53.21 10.15 C-50.26 9.45 -47.3 8.76 -44.34 8.08 C-43.5 7.88 -42.65 7.68 -41.79 7.48 C-40.98 7.3 -40.17 7.11 -39.34 6.92 C-38.23 6.66 -38.23 6.66 -37.09 6.4 C-35.21 6.15 -35.21 6.15 -33.21 7.15 C-33.21 6.49 -33.21 5.83 -33.21 5.15 C-29.91 5.15 -26.61 5.15 -23.21 5.15 C-23.21 4.49 -23.21 3.83 -23.21 3.15 C-22.15 3.01 -21.09 2.88 -20 2.74 C-18.61 2.56 -17.22 2.39 -15.84 2.21 C-14.79 2.08 -14.79 2.08 -13.72 1.94 C-8.86 1.31 -4.95 0.02 0 0 Z M407.79 389.15 C408.79 391.15 408.79 391.15 408.79 391.15 Z M358.79 745.15 C358.46 745.81 358.13 746.47 357.79 747.15 C358.78 746.82 359.77 746.49 360.79 746.15 C360.13 745.82 359.47 745.49 358.79 745.15 Z M346.79 754.15 C346.46 754.81 346.13 755.47 345.79 756.15 C346.45 756.15 347.11 756.15 347.79 756.15 C347.46 755.49 347.13 754.83 346.79 754.15 Z " fill="#90DA78" transform="translate(481.2119140625,176.854736328125)"/>
<path d="M0 0 C0 0.66 0 1.32 0 2 C4.29 2 8.58 2 13 2 C13 2.66 13 3.32 13 4 C14.33 3.94 14.33 3.94 15.69 3.88 C19.09 4 20.89 4.73 24 6 C26.18 6.62 28.37 7.23 30.56 7.81 C36.28 9.42 41.65 11.4 47.09 13.76 C51.65 15.7 56.32 17.35 61 19 C61 19.66 61 20.32 61 21 C61.54 21.1 62.07 21.21 62.62 21.31 C68.49 23.01 73.58 26.51 78.73 29.7 C81.04 31.12 81.04 31.12 84 32 C84.66 32.99 85.32 33.98 86 35 C86.99 35.33 87.98 35.66 89 36 C89 36.66 89 37.32 89 38 C89.58 38.08 90.15 38.16 90.75 38.25 C94.43 39.48 96.43 42.38 99 45.19 C101.16 47.14 102.27 47.32 105 48 C106.82 49.71 106.82 49.71 108.56 51.81 C109.43 52.84 109.43 52.84 110.32 53.89 C111.43 55.29 112.51 56.7 113.56 58.14 C115.01 60.18 115.01 60.18 117.5 61.94 C120.15 64.12 121.28 66.06 123 69 C123.89 69.87 124.77 70.73 125.69 71.62 C128 74 128 74 128 77 C128.66 77 129.32 77 130 77 C131.02 78.65 132.02 80.32 133 82 C134.21 83.39 134.21 83.39 135.44 84.81 C137.92 87.69 139.47 90.71 141.01 94.17 C141.92 96.09 141.92 96.09 143.62 97.49 C145 99 145 99 145 103 C145.66 103 146.32 103 147 103 C149.03 106.73 150 108.67 150 113 C150.66 113 151.32 113 152 113 C154.03 116.73 155 118.67 155 123 C155.66 123 156.32 123 157 123 C158.35 125.71 158.07 128.01 158 131 C158.66 131 159.32 131 160 131 C160 132.32 160 133.64 160 135 C160.66 135 161.32 135 162 135 C162.4 136.73 162.4 136.73 162.81 138.5 C163.68 141.98 164.83 145.24 166.14 148.58 C167.69 152.95 168.83 157.45 170.04 161.93 C170.88 165.13 170.88 165.13 173 168 C173.12 169.03 173.25 170.06 173.38 171.12 C174.04 175.25 175.36 178.21 177.26 181.89 C178.13 184.36 177.87 185.56 177 188 C173.77 185.36 172.62 182.01 171.12 178.25 C166.4 166.97 160.17 156.53 154 146 C153.52 145.17 153.04 144.34 152.54 143.49 C145.85 131.97 138.29 121.42 130 111 C129.25 110.03 128.49 109.06 127.71 108.07 C113.14 89.49 96.17 72.04 76.9 58.36 C75.1 57.07 73.34 55.75 71.57 54.41 C36.17 27.81 -7.71 11.71 -51 4 C-51 3.67 -51 3.34 -51 3 C-57.52 2.21 -64 1.73 -70.56 1.44 C-71.93 1.37 -71.93 1.37 -73.33 1.31 C-75.55 1.2 -77.78 1.1 -80 1 C-80 0.67 -80 0.34 -80 0 C-71.94 -0.13 -63.88 -0.26 -55.82 -0.39 C-52.08 -0.45 -48.34 -0.51 -44.6 -0.57 C-40.98 -0.63 -37.36 -0.69 -33.74 -0.75 C-32.37 -0.77 -30.99 -0.79 -29.62 -0.81 C-8.04 -1.17 -8.04 -1.17 0 0 Z " fill="#9BB57B" transform="translate(574,180)"/>
<path d="M0 0 C0.61 47.43 0.61 47.43 -8 63 C-9.39 58.82 -7.82 56.87 -6 53 C-18.8 49.41 -18.8 49.41 -32 49 C-32.69 49 -33.37 48.99 -34.08 48.99 C-44.18 49.33 -54.76 55.59 -62.68 61.54 C-64.27 63.3 -64.61 64.69 -65 67 C-55.1 76.63 -45.61 81.53 -32 84 C-32 84.33 -32 84.66 -32 85 C-46.18 85.79 -54.14 82 -65 73 C-79.16 59.92 -86 40.39 -90 22 C-90 20.68 -90 19.36 -90 18 C-82.93 16 -75.85 14.24 -68.66 12.73 C-67.71 12.53 -66.76 12.33 -65.78 12.12 C-62.73 11.47 -59.68 10.83 -56.62 10.19 C-54.52 9.74 -52.41 9.3 -50.31 8.85 C-46.14 7.97 -41.97 7.1 -37.8 6.22 C-33.44 5.31 -29.09 4.38 -24.74 3.44 C-22.66 3 -20.58 2.55 -18.49 2.11 C-16.06 1.59 -13.62 1.07 -11.19 0.54 C-10.13 0.32 -9.07 0.09 -7.98 -0.14 C-7.08 -0.33 -6.18 -0.52 -5.26 -0.72 C-3 -1 -3 -1 0 0 Z " fill="#383814" transform="translate(649,469)"/>
<path d="M0 0 C2 1.38 2 1.38 4 3 C4 3.66 4 4.32 4 5 C4.72 4.73 5.44 4.46 6.19 4.19 C9 4 9 4 11.31 5.94 C12.21 6.96 13.11 7.98 14 9 C15.33 10.34 16.66 11.67 18 13 C18.69 13.69 19.37 14.38 20.08 15.09 C21.61 16.61 23.15 18.12 24.69 19.62 C26.45 21.44 28.04 23.23 29.62 25.19 C31.88 28.12 31.88 28.12 35 30 C35.39 30.7 35.78 31.4 36.19 32.12 C37.89 34.83 39.52 36.56 41.81 38.75 C45.38 42.21 48.07 45.8 50.68 50.02 C51.96 51.94 53.35 53.39 55 55 C56.01 56.66 57.01 58.33 58 60 C59.32 61.68 60.66 63.34 62 65 C62.93 66.18 63.85 67.37 64.75 68.56 C65.18 69.12 65.61 69.68 66.05 70.25 C67 72 67 72 67 76 C67.64 76.23 68.28 76.45 68.94 76.69 C71 78 71 78 71.75 80.62 C71.83 81.41 71.91 82.19 72 83 C72.66 83 73.32 83 74 83 C74.43 83.89 74.87 84.77 75.31 85.69 C77.32 89.63 79.55 93.32 82 97 C82 98.32 82 99.64 82 101 C83.49 101.5 83.49 101.5 85 102 C85 103.32 85 104.64 85 106 C85.62 106.25 86.23 106.51 86.87 106.77 C89.34 108.2 89.91 109.14 91.07 111.7 C91.41 112.44 91.75 113.17 92.1 113.93 C92.44 114.69 92.78 115.46 93.12 116.25 C93.47 117 93.82 117.75 94.18 118.53 C95.63 121.72 96.95 124.85 98.06 128.18 C99.08 131.25 100.43 133.95 101.94 136.81 C104.11 141.08 105.89 145.22 107.29 149.79 C108.08 152.25 109.02 154.61 110 157 C113.51 165.69 116.09 173.38 115.94 182.88 C115.64 186.1 115.64 186.1 118 188 C118.2 190.38 118.2 190.38 118.12 193.12 C118.11 194.04 118.09 194.95 118.07 195.88 C118.05 196.58 118.02 197.28 118 198 C117.01 198 116.02 198 115 198 C114.57 196.84 114.13 195.68 113.69 194.48 C101.2 161.2 87 128.87 68.49 98.46 C67.15 96.24 65.82 94 64.52 91.76 C59.53 83.23 54.06 75.1 48.4 67.02 C47.02 65.02 45.66 63.01 44.31 61 C38.17 51.84 31.54 43.25 24.48 34.78 C22.41 32.29 20.36 29.77 18.31 27.25 C16.03 24.45 13.73 21.67 11.37 18.94 C0 5.71 0 5.71 0 0 Z M87 109 C88 111 88 111 88 111 Z " fill="#9AB77B" transform="translate(802,457)"/>
<path d="M0 0 C6.17 2.77 9.32 8 12 14 C14.86 22.04 15.46 29.57 15.38 38.06 C15.39 39.17 15.4 40.28 15.41 41.42 C15.37 52.63 12.79 61.95 6 71 C2.96 73.66 1.04 74.77 -2.88 75.62 C-8.43 74.51 -12.32 71.45 -15.52 66.8 C-23.85 51.22 -23.99 33.86 -19.17 17.23 C-15.8 7.91 -11.1 -1.13 0 0 Z " fill="#393814" transform="translate(445,372)"/>
<path d="M0 0 C7.72 6.46 11.47 15.27 13 25 C14.21 40.53 14.77 56.7 4.56 69.41 C1.71 72.31 -0.18 73.87 -4.25 74.5 C-9.18 73.84 -12.35 72.4 -16 69 C-24.86 56.48 -25.5 40.01 -23.5 25.31 C-21.36 14.98 -17.93 6.1 -9 0 C-5.64 -1.68 -3.57 -1 0 0 Z " fill="#393814" transform="translate(667,355)"/>
<path d="M0 0 C2.69 2.87 3.87 5.14 5.07 8.93 C4.87 14.24 2.47 16.88 -1.25 20.49 C-14.52 29.34 -30.41 29.8 -45.82 27.9 C-54.37 26.19 -62.08 22.8 -68.18 16.43 C-70.56 12.54 -70.99 10.85 -70.06 6.36 C-65.44 -1.57 -58.02 -4.9 -49.5 -7.38 C-34 -10.8 -12.9 -10.26 0 0 Z " fill="#9EB67E" transform="translate(475.05859375,487.63671875)"/>
<path d="M0 0 C2.54 2.99 3.78 5.08 4.69 8.88 C3.42 14.64 -0.53 18.41 -5.41 21.55 C-14.56 26.35 -22.98 27.39 -33.19 27.38 C-34.3 27.37 -35.41 27.37 -36.55 27.37 C-47.9 27.2 -58.13 25.52 -66.68 17.4 C-69.34 14.61 -70.85 12.76 -71.62 8.94 C-70.62 4.19 -68.78 1.36 -64.89 -1.61 C-58.9 -5.46 -52.96 -7.61 -46 -9 C-45.3 -9.14 -44.59 -9.29 -43.87 -9.43 C-29.61 -11.63 -11.29 -9.57 0 0 Z " fill="#9EB67E" transform="translate(761,456)"/>
<path d="M0 0 C8.12 -0.29 16.42 1.25 23.6 5.16 C21.96 12.22 19.93 20.02 14.6 25.16 C13.94 25.16 13.28 25.16 12.6 25.16 C12.33 25.8 12.07 26.44 11.79 27.1 C10.6 29.16 10.6 29.16 7.6 30.16 C7.11 31.65 7.11 31.65 6.6 33.16 C5.61 32.67 5.61 32.67 4.6 32.16 C3.51 33.19 3.51 33.19 2.54 34.73 C-0.57 37.03 -3.73 36.61 -7.4 36.16 C-19.15 33.86 -27.88 27.27 -36.4 19.16 C-35.68 15.17 -33.93 13.33 -30.77 10.76 C-25.54 7.24 -18.81 3.16 -12.4 3.16 C-12.07 2.5 -11.74 1.84 -11.4 1.16 C-7.58 0.56 -3.85 0.26 0 0 Z " fill="#9BB47C" transform="translate(619.3984375,516.8359375)"/>
<path d="M0 0 C0.33 0 0.66 0 1 0 C1.54 10.45 1.17 20.1 -1.31 30.31 C-1.63 31.63 -1.63 31.63 -1.96 32.97 C-4.77 43.77 -4.77 43.77 -8 47 C-7.67 47.99 -7.34 48.98 -7 50 C-8.25 51.94 -8.25 51.94 -10 54 C-12.2 56.88 -12.2 56.88 -14 60 C-13.34 60 -12.68 60 -12 60 C-12 60.66 -12 61.32 -12 62 C-12.99 62 -13.98 62 -15 62 C-14.67 62.81 -14.67 62.81 -14.33 63.63 C-13.49 69.6 -19.12 76.75 -22.19 81.75 C-22.79 82.49 -23.38 83.24 -24 84 C-24.99 84 -25.98 84 -27 84 C-26.67 84.99 -26.34 85.98 -26 87 C-26.5 88.49 -26.5 88.49 -27 90 C-27.99 90 -28.98 90 -30 90 C-29.67 90.99 -29.34 91.98 -29 93 C-31.25 96.19 -31.25 96.19 -34 99 C-34.99 99 -35.98 99 -37 99 C-36.9 99.68 -36.79 100.36 -36.69 101.06 C-37.13 105.18 -39.17 108.02 -42 111 C-42.66 111 -43.32 111 -44 111 C-44.26 111.59 -44.53 112.19 -44.8 112.8 C-46.04 115.08 -47.3 116.47 -49.19 118.25 C-52.48 121.42 -55.42 124.78 -58.32 128.3 C-60.1 130.1 -61.74 130.92 -64 132 C-64.29 132.6 -64.58 133.2 -64.88 133.81 C-66.58 137.13 -69.02 138.76 -72 141 C-72.66 141 -73.32 141 -74 141 C-74.33 141.99 -74.66 142.98 -75 144 C-76.97 145.38 -78.98 146.7 -81 148 C-83.05 149.62 -85.02 151.3 -87 153 C-87 152.01 -87 151.02 -87 150 C-85.67 148.99 -84.34 147.99 -83 147 C-82.44 145.96 -82.44 145.96 -81.87 144.9 C-79.13 140.65 -75.51 137.43 -71.88 133.94 C-65.14 127.32 -59.44 120.73 -54 113 C-53.04 111.73 -52.08 110.46 -51.11 109.2 C-27.74 78.66 -3.67 38.91 0 0 Z " fill="#99B279" transform="translate(924,776)"/>
<path d="M0 0 C0 9.9 0 19.8 0 30 C-0.33 30 -0.66 30 -1 30 C-1.03 29.02 -1.03 29.02 -1.06 28.01 C-1.16 25.05 -1.26 22.09 -1.38 19.12 C-1.41 18.09 -1.44 17.06 -1.47 16 C-1.51 15.01 -1.55 14.02 -1.59 13.01 C-1.62 12.1 -1.65 11.19 -1.68 10.25 C-1.8 7.8 -1.8 7.8 -4 6 C-12.79 6.37 -21.43 8.72 -30 10.62 C-33.3 11.35 -36.6 12.07 -39.91 12.8 C-40.74 12.98 -41.58 13.16 -42.44 13.35 C-48.15 14.6 -53.87 15.82 -59.59 17.02 C-60.35 17.17 -61.11 17.33 -61.89 17.5 C-64.8 18.1 -67.72 18.71 -70.63 19.31 C-72.62 19.72 -74.61 20.14 -76.59 20.55 C-77.71 20.79 -78.84 21.02 -79.99 21.26 C-82.8 21.95 -85.35 22.85 -88 24 C-88 23.34 -88 22.68 -88 22 C-88.66 22 -89.32 22 -90 22 C-90 20.68 -90 19.36 -90 18 C-82.93 16 -75.85 14.24 -68.66 12.73 C-67.71 12.53 -66.76 12.33 -65.78 12.12 C-62.73 11.47 -59.68 10.83 -56.62 10.19 C-54.52 9.74 -52.41 9.3 -50.31 8.85 C-46.14 7.97 -41.97 7.1 -37.8 6.22 C-33.44 5.31 -29.09 4.38 -24.74 3.44 C-22.66 3 -20.58 2.55 -18.49 2.11 C-16.06 1.59 -13.62 1.07 -11.19 0.54 C-10.13 0.32 -9.07 0.09 -7.98 -0.14 C-7.08 -0.33 -6.18 -0.52 -5.26 -0.72 C-3 -1 -3 -1 0 0 Z " fill="#000100" transform="translate(649,469)"/>
<path d="M0 0 C2.62 3.94 5.09 7.97 7.56 12 C8.07 12.82 8.58 13.64 9.1 14.48 C9.83 15.67 9.83 15.67 10.57 16.88 C11.23 17.95 11.23 17.95 11.91 19.05 C13 21 13 21 14 24 C14.66 24 15.32 24 16 24 C17.24 25.52 17.24 25.52 18.5 27.06 C27.03 37.37 38.33 41.35 51 44 C51 44.33 51 44.66 51 45 C36.82 45.79 28.86 42 18 33 C10.44 26.02 0.35 12.87 -0.12 2.19 C-0.08 1.47 -0.04 0.74 0 0 Z " fill="#000100" transform="translate(566,509)"/>
<path d="M0 0 C6.91 2.92 10.96 7.94 15 14 C13.19 14.66 13.19 14.66 11 15 C8.71 13.08 6.77 11.24 4.75 9.06 C4.2 8.49 3.64 7.91 3.07 7.31 C1.7 5.89 0.35 4.44 -1 3 C-0.67 2.01 -0.34 1.02 0 0 Z " fill="#80BC65" transform="translate(816,468)"/>
<path d="M0 0 C0.66 0 1.32 0 2 0 C0.58 3.54 -0.68 4.34 -4 6 C-4.29 6.6 -4.58 7.2 -4.88 7.81 C-6.58 11.13 -9.02 12.76 -12 15 C-12.66 15 -13.32 15 -14 15 C-14 15.66 -14 16.32 -14 17 C-14.66 17 -15.32 17 -16 17 C-14.66 13.94 -13.29 12.15 -10.69 10.06 C-7.61 7.53 -4.78 4.86 -2 2 C-1.34 1.34 -0.68 0.68 0 0 Z " fill="#779958" transform="translate(864,902)"/>
<path d="M0 0 C4.53 3.68 8.4 7.4 12 12 C12.6 12.74 13.2 13.49 13.81 14.25 C15 16 15 16 15 18 C12 17 12 17 10 14 C10 13.01 10 12.02 10 11 C9.01 11.33 8.02 11.66 7 12 C6.67 11.01 6.34 10.02 6 9 C5.34 8.67 4.68 8.34 4 8 C3 6.19 3 6.19 2 4 C1.34 2.67 0.67 1.33 0 0 Z " fill="#8FD576" transform="translate(837,490)"/>
<path d="M0 0 C3.53 1.96 6.42 3.87 9 7 C9.75 9.75 9.75 9.75 10 12 C6.78 10.59 4.68 8.9 2.25 6.38 C1.64 5.74 1.02 5.11 0.39 4.46 C-0.07 3.98 -0.53 3.5 -1 3 C-0.67 2.01 -0.34 1.02 0 0 Z " fill="#8AAC6B" transform="translate(777,436)"/>
<path d="M0 0 C2.64 1.32 2.7 2.37 3.62 5.12 C4.95 9.27 5.28 12.67 5 17 C4.34 17.33 3.68 17.66 3 18 C2.93 17.06 2.93 17.06 2.85 16.1 C2.78 15.28 2.7 14.47 2.62 13.62 C2.56 12.81 2.49 12 2.41 11.16 C2.17 8.8 2.17 8.8 0 7 C-0.12 3.38 -0.12 3.38 0 0 Z " fill="#91D879" transform="translate(912,618)"/>
<path d="M0 0 C0.33 0 0.66 0 1 0 C1.49 8.8 -0.74 16.28 -5 24 C-6.25 20.26 -5.52 19.21 -4.06 15.62 C-2.52 11.83 -1.88 9.08 -2 5 C-1 2.19 -1 2.19 0 0 Z " fill="#0D0D04" transform="translate(646,508)"/>
<path d="M0 0 C0.89 0.76 1.77 1.53 2.69 2.31 C5.31 4.51 8 6.33 11 8 C9.02 8.99 9.02 8.99 7 10 C6.1 8.79 6.1 8.79 5.19 7.56 C3.19 4.78 3.19 4.78 0 4 C0 2.68 0 1.36 0 0 Z " fill="#92D779" transform="translate(799,452)"/>
<path d="M0 0 C3.3 0 6.6 0 10 0 C10 0.66 10 1.32 10 2 C10.66 2.33 11.32 2.66 12 3 C10.56 3.03 9.13 3.05 7.69 3.06 C6.49 3.08 6.49 3.08 5.26 3.1 C3 3 3 3 0 2 C0 1.34 0 0.68 0 0 Z " fill="#6FA85D" transform="translate(577,182)"/>
<path d="M0 0 C0.33 0 0.66 0 1 0 C1 7.26 1 14.52 1 22 C0.67 22 0.34 22 0 22 C0 14.74 0 7.48 0 0 Z " fill="#000100" transform="translate(930,720)"/>
<path d="M0 0 C2.64 0 5.28 0 8 0 C8 0.33 8 0.66 8 1 C5.36 1 2.72 1 0 1 C0 0.67 0 0.34 0 0 Z " fill="#000100" transform="translate(616,1000)"/>
<path d="M0 0 C2.31 0 4.62 0 7 0 C7 0.33 7 0.66 7 1 C4.69 1 2.38 1 0 1 C0 0.67 0 0.34 0 0 Z " fill="#000100" transform="translate(669,1000)"/>
<path d="M0 0 C0.33 0 0.66 0 1 0 C1 1.98 1 3.96 1 6 C0.67 6 0.34 6 0 6 C0 4.02 0 2.04 0 0 Z " fill="#000100" transform="translate(930,695)"/>
<path d="M0 0 C0.66 0.33 1.32 0.66 2 1 C1.01 1 0.02 1 -1 1 C-0.67 0.67 -0.34 0.34 0 0 Z " fill="#7EA961" transform="translate(816,941)"/>
<path d="M0 0 C0.33 0.66 0.66 1.32 1 2 C0.34 1.67 -0.32 1.34 -1 1 C-0.67 0.67 -0.34 0.34 0 0 Z " fill="#7C8C5A" transform="translate(912,833)"/>
<path d="" fill="#393814" transform="translate(0,0)"/>
<path d="" fill="#393814" transform="translate(0,0)"/>
<path d="M0 0 C2 1 2 1 2 1 Z " fill="#000100" transform="translate(587,995)"/>
<path d="M0 0 C2 1 2 1 2 1 Z " fill="#000100" transform="translate(721,990)"/>
<path d="" fill="#000100" transform="translate(0,0)"/>
<path d="" fill="#000100" transform="translate(0,0)"/>
<path d="" fill="#000100" transform="translate(0,0)"/>
<path d="" fill="#000100" transform="translate(0,0)"/>
<path d="" fill="#000100" transform="translate(0,0)"/>
<path d="" fill="#000100" transform="translate(0,0)"/>
<path d="" fill="#000100" transform="translate(0,0)"/>
<path d="" fill="#91DB79" transform="translate(0,0)"/>
<path d="" fill="#000100" transform="translate(0,0)"/>
<path d="" fill="#91DB79" transform="translate(0,0)"/>
<path d="" fill="#393814" transform="translate(0,0)"/>
<path d="" fill="#393814" transform="translate(0,0)"/>
<path d="" fill="#393814" transform="translate(0,0)"/>
<path d="" fill="#393814" transform="translate(0,0)"/>
<path d="" fill="#9EB67E" transform="translate(0,0)"/>
<path d="" fill="#393814" transform="translate(0,0)"/>
<path d="" fill="#393814" transform="translate(0,0)"/>
<path d="" fill="#000100" transform="translate(0,0)"/>
<path d="" fill="#000100" transform="translate(0,0)"/>
<path d="" fill="#000100" transform="translate(0,0)"/>
<path d="" fill="#000100" transform="translate(0,0)"/>
<path d="" fill="#000100" transform="translate(0,0)"/>
<path d="" fill="#91DB79" transform="translate(0,0)"/>
<path d="" fill="#91DB79" transform="translate(0,0)"/>
<path d="" fill="#000100" transform="translate(0,0)"/>
<path d="" fill="#000100" transform="translate(0,0)"/>
<path d="" fill="#000100" transform="translate(0,0)"/>
<path d="" fill="#000100" transform="translate(0,0)"/>
<path d="" fill="#000100" transform="translate(0,0)"/>
<path d="" fill="#000100" transform="translate(0,0)"/>
<path d="" fill="#000100" transform="translate(0,0)"/>
<path d="" fill="#000100" transform="translate(0,0)"/>
<path d="" fill="#000100" transform="translate(0,0)"/>
<path d="" fill="#000100" transform="translate(0,0)"/>
<path d="" fill="#91DB79" transform="translate(0,0)"/>
<path d="" fill="#000100" transform="translate(0,0)"/>
<path d="" fill="#000100" transform="translate(0,0)"/>
</svg>
