<svg width="14" height="10" viewBox="0 0 14 10" fill="none" xmlns="http://www.w3.org/2000/svg">
<path d="M12.8333 0H1.16667C0.52257 0 0 0.479911 0 1.07143V8.92857C0 9.52009 0.52257 10 1.16667 10H12.8333C13.4774 10 14 9.52009 14 8.92857V1.07143C14 0.479911 13.4774 0 12.8333 0ZM4.27778 2.14286C5.13576 2.14286 5.83333 2.78348 5.83333 3.57143C5.83333 4.35938 5.13576 5 4.27778 5C3.41979 5 2.72222 4.35938 2.72222 3.57143C2.72222 2.78348 3.41979 2.14286 4.27778 2.14286ZM7 7.42857C7 7.66518 6.75694 7.85714 6.45556 7.85714H2.1C1.79861 7.85714 1.55556 7.66518 1.55556 7.42857V7C1.55556 6.29018 2.28715 5.71429 3.18889 5.71429H3.31042C3.60938 5.82812 3.93507 5.89286 4.27778 5.89286C4.62049 5.89286 4.94861 5.82812 5.24514 5.71429H5.36667C6.2684 5.71429 7 6.29018 7 7V7.42857ZM12.4444 6.25C12.4444 6.34821 12.3569 6.42857 12.25 6.42857H8.75C8.64306 6.42857 8.55556 6.34821 8.55556 6.25V5.89286C8.55556 5.79464 8.64306 5.71429 8.75 5.71429H12.25C12.3569 5.71429 12.4444 5.79464 12.4444 5.89286V6.25ZM12.4444 4.82143C12.4444 4.91964 12.3569 5 12.25 5H8.75C8.64306 5 8.55556 4.91964 8.55556 4.82143V4.46429C8.55556 4.36607 8.64306 4.28571 8.75 4.28571H12.25C12.3569 4.28571 12.4444 4.36607 12.4444 4.46429V4.82143ZM12.4444 3.39286C12.4444 3.49107 12.3569 3.57143 12.25 3.57143H8.75C8.64306 3.57143 8.55556 3.49107 8.55556 3.39286V3.03571C8.55556 2.9375 8.64306 2.85714 8.75 2.85714H12.25C12.3569 2.85714 12.4444 2.9375 12.4444 3.03571V3.39286Z" fill="black"/>
</svg>
