<?xml version="1.0" encoding="UTF-8"?>
<!-- Generator: visioncortex VTracer 0.6.3 -->
<svg version="1.1" xmlns="http://www.w3.org/2000/svg" width="1084" height="1280">
<path d="M0 0 C1.52 -0 3.04 -0.01 4.56 -0.01 C7.73 -0.02 10.9 -0.02 14.07 -0.02 C18.1 -0.02 22.12 -0.03 26.14 -0.05 C29.28 -0.06 32.42 -0.06 35.55 -0.06 C37.03 -0.06 38.52 -0.07 40 -0.07 C51.94 -0.13 63.48 0.98 75.13 3.61 C76.85 3.99 76.85 3.99 78.59 4.38 C80.3 4.77 80.3 4.77 82.04 5.17 C83.21 5.43 84.37 5.69 85.58 5.96 C97.37 8.61 108.65 12.35 120.11 16.17 C120.11 16.83 120.11 17.49 120.11 18.17 C121.46 18.24 121.46 18.24 122.84 18.31 C128.8 19.17 134.02 22.21 139.36 24.86 C140.42 25.37 141.49 25.89 142.59 26.42 C149.54 29.81 156.35 33.41 163.11 37.17 C163.11 37.83 163.11 38.49 163.11 39.17 C163.81 39.25 164.51 39.33 165.23 39.42 C168.8 40.35 171.2 41.93 174.11 44.17 C174.11 44.83 174.11 45.49 174.11 46.17 C174.66 46.26 175.22 46.36 175.8 46.45 C180.84 48.01 184.95 52.02 189.11 55.17 C190.67 56.32 190.67 56.32 192.26 57.5 C198.82 62.4 204.94 67.6 210.88 73.23 C213.21 75.45 215.42 77.38 218.11 79.17 C218.11 79.83 218.11 80.49 218.11 81.17 C218.95 81.52 218.95 81.52 219.81 81.89 C222.62 83.46 224.59 85.38 226.86 87.67 C227.65 88.46 228.45 89.26 229.28 90.07 C231.11 92.17 231.11 92.17 231.11 94.17 C231.77 94.17 232.43 94.17 233.11 94.17 C234.41 95.43 234.41 95.43 235.98 97.29 C236.6 98.02 237.22 98.75 237.86 99.51 C238.6 100.39 239.34 101.26 240.11 102.17 C241.03 103.23 241.96 104.3 242.88 105.36 C260.11 125.16 260.11 125.16 263.19 131.35 C264.01 133.22 264.01 133.22 265.5 134.55 C267.14 136.21 268.37 137.87 269.67 139.8 C270.15 140.52 270.63 141.23 271.13 141.97 C271.64 142.73 272.14 143.5 272.67 144.29 C273.2 145.1 273.74 145.9 274.29 146.73 C297.64 182.28 315.68 220.82 329.56 260.94 C331.21 265.68 332.94 270.38 334.79 275.04 C337.1 280.95 338.85 286.94 340.52 293.06 C341.2 295.49 341.9 297.91 342.62 300.34 C347.92 318.43 347.92 318.43 349.11 327.17 C350.75 327.41 350.75 327.41 352.43 327.65 C353.88 327.88 355.34 328.12 356.79 328.36 C357.51 328.46 358.24 328.56 358.98 328.66 C359.68 328.78 360.39 328.9 361.12 329.02 C362.08 329.17 362.08 329.17 363.07 329.32 C366.09 330.58 367.83 332.83 370.11 335.17 C371.67 336.72 373.24 338.28 374.8 339.83 C379.25 344.24 383.68 348.66 388.12 353.08 C390.79 355.74 393.47 358.41 396.15 361.07 C398.76 363.65 401.36 366.23 403.95 368.82 C404.94 369.81 405.93 370.79 406.92 371.78 C408.31 373.14 409.68 374.52 411.05 375.89 C411.84 376.67 412.62 377.45 413.43 378.25 C415.11 380.17 415.11 380.17 415.11 382.17 C416.06 382.57 416.06 382.57 417.04 382.98 C419.11 384.17 419.11 384.17 420.11 387.17 C421.1 387.5 422.09 387.83 423.11 388.17 C425.29 390.11 425.29 390.11 427.11 392.17 C427.11 392.83 427.11 393.49 427.11 394.17 C428.06 394.57 428.06 394.57 429.04 394.98 C431.11 396.17 431.11 396.17 432.11 399.17 C433.1 399.5 434.09 399.83 435.11 400.17 C435.11 400.83 435.11 401.49 435.11 402.17 C436.1 402.5 437.09 402.83 438.11 403.17 C439.61 404.73 439.61 404.73 441.11 406.61 C443.07 409.06 444.43 410.38 447.11 412.17 C447.11 412.83 447.11 413.49 447.11 414.17 C448.1 414.5 449.09 414.83 450.11 415.17 C450.11 415.83 450.11 416.49 450.11 417.17 C451.1 417.5 452.09 417.83 453.11 418.17 C454.68 419.8 454.68 419.8 456.36 421.86 C458.63 424.55 460.88 426.94 463.61 429.17 C466.95 431.92 469.68 435 472.48 438.29 C474.57 440.71 476.81 442.94 479.11 445.17 C504.11 470.17 504.11 470.17 506.42 472.54 C508.55 474.63 510.71 476.55 512.98 478.48 C516.49 481.52 519.51 484.79 522.52 488.32 C524.59 490.73 526.83 492.95 529.11 495.17 C532.83 498.88 536.53 502.6 540.24 506.32 C543.53 509.63 546.83 512.94 550.13 516.24 C551.87 517.99 553.61 519.74 555.35 521.48 C557.86 524.01 560.38 526.53 562.89 529.05 C563.67 529.84 564.45 530.62 565.25 531.43 C565.98 532.15 566.7 532.88 567.45 533.62 C568.4 534.58 568.4 534.58 569.37 535.56 C571.22 537.36 571.22 537.36 574.11 539.17 C573.55 542.41 572.69 544.1 570.11 546.17 C569.45 546.17 568.79 546.17 568.11 546.17 C567.78 547.16 567.45 548.15 567.11 549.17 C566.45 549.17 565.79 549.17 565.11 549.17 C565.11 549.83 565.11 550.49 565.11 551.17 C563.64 552.61 563.64 552.61 561.61 554.29 C557.76 557.55 554.24 561.02 550.77 564.66 C549.11 566.17 549.11 566.17 547.11 566.17 C546.86 566.75 546.62 567.32 546.38 567.92 C544.86 570.61 543.13 572.15 540.79 574.17 C536.71 577.75 532.66 581.36 528.67 585.04 C528.12 585.54 527.58 586.04 527.02 586.56 C522.27 590.95 517.74 595.53 513.25 600.18 C511.11 602.17 511.11 602.17 509.11 602.17 C509.11 602.83 509.11 603.49 509.11 604.17 C508.45 604.17 507.79 604.17 507.11 604.17 C507.11 604.83 507.11 605.49 507.11 606.17 C505.5 607.75 505.5 607.75 503.36 609.54 C501.04 611.51 498.85 613.43 496.73 615.61 C495.11 617.17 495.11 617.17 493.11 617.17 C492.85 617.76 492.59 618.36 492.33 618.97 C490.99 621.38 489.67 622.62 487.54 624.36 C484.41 627 481.48 629.74 478.61 632.67 C468.11 643.27 468.11 643.27 464 645.11 C461.6 646.45 461.28 647.72 460.11 650.17 C458.12 652.13 458.12 652.13 455.79 654.11 C451.85 657.51 448.14 661.04 444.54 664.8 C443.1 666.29 441.61 667.73 440.11 669.17 C439.45 669.17 438.79 669.17 438.11 669.17 C437.78 670.16 437.45 671.15 437.11 672.17 C435.71 673.54 435.71 673.54 433.86 675.04 C429.89 678.39 426.25 681.98 422.61 685.67 C418.44 689.89 414.23 693.97 409.69 697.8 C408.05 699.17 408.05 699.17 406.52 700.85 C405.11 702.17 405.11 702.17 403.11 702.17 C402.84 702.81 402.57 703.45 402.29 704.11 C401.11 706.17 401.11 706.17 398.11 707.17 C397.82 707.75 397.53 708.32 397.23 708.92 C396.11 711.17 396.11 711.17 393.46 713.06 C390.75 716.64 390.84 717.29 391.27 721.57 C391.59 723.75 391.93 725.93 392.29 728.11 C397.81 767.56 397.81 767.56 389.25 782.39 C386.2 786.35 384.69 787.92 379.67 788.71 C367.7 789.21 359.05 785.73 349.98 777.67 C349.03 776.84 348.08 776.02 347.11 775.17 C346.12 775.5 345.13 775.83 344.11 776.17 C342.83 778.99 341.73 781.77 340.67 784.67 C326.98 820.34 307.38 854.43 284.6 885.09 C283.08 887.09 283.08 887.09 282.11 889.17 C281.45 889.17 280.79 889.17 280.11 889.17 C279.86 889.89 279.61 890.61 279.35 891.36 C277.99 894.43 276.39 896.54 274.23 899.11 C273.44 900.05 272.64 901 271.82 901.98 C268.29 906.13 264.75 910.27 261.18 914.4 C259.15 916.75 257.19 919.05 255.38 921.58 C254.96 922.1 254.54 922.63 254.11 923.17 C253.45 923.17 252.79 923.17 252.11 923.17 C251.75 924.02 251.75 924.02 251.38 924.89 C249.85 927.63 247.99 929.44 245.73 931.61 C243.18 934.08 240.88 936.45 238.67 939.23 C237.89 940.19 237.89 940.19 237.11 941.17 C236.45 941.17 235.79 941.17 235.11 941.17 C235.11 941.83 235.11 942.49 235.11 943.17 C233.64 944.61 233.64 944.61 231.61 946.29 C228.64 948.8 225.87 951.38 223.17 954.17 C219.78 957.62 216.17 960.56 212.28 963.43 C209.69 965.5 207.44 967.82 205.11 970.17 C186.44 986.29 166.06 1000.23 145.29 1013.48 C144.53 1013.97 143.77 1014.46 142.98 1014.97 C137.53 1018.42 131.92 1021.38 126.11 1024.17 C126.59 1024.76 127.08 1025.34 127.58 1025.95 C129.76 1029.12 129.55 1032.2 129.61 1035.92 C129.82 1043.08 130.54 1050.08 131.5 1057.18 C133.2 1070.18 134.26 1083.21 135.23 1096.29 C135.48 1099.64 135.74 1102.98 136 1106.32 C136.15 1108.38 136.31 1110.43 136.46 1112.48 C136.81 1117.1 137.31 1121.6 138.11 1126.17 C138.3 1128.42 138.46 1130.67 138.61 1132.92 C138.73 1134.82 138.73 1134.82 138.86 1136.76 C139.02 1139.41 139.19 1142.06 139.36 1144.71 C139.44 1145.98 139.52 1147.24 139.61 1148.55 C139.68 1149.7 139.75 1150.85 139.82 1152.03 C140.07 1154.82 140.54 1157.43 141.11 1160.17 C141.28 1162.92 141.43 1165.66 141.54 1168.42 C141.88 1175.35 142.5 1182.2 143.37 1189.08 C144.16 1195.43 144.67 1201.79 145.11 1208.17 C145.73 1208.08 146.36 1207.99 147.01 1207.89 C171.92 1204.35 197.2 1201.29 218.98 1216.55 C226.95 1222.6 233.09 1230.24 234.58 1240.43 C234.73 1246.02 234.38 1249.51 231.11 1254.17 C213.31 1270.95 181.31 1266.65 158.88 1266.05 C144.58 1265.54 130.53 1263.62 116.73 1259.79 C116.03 1259.61 115.34 1259.42 114.62 1259.23 C109.19 1257.62 106.05 1254.97 102.85 1250.35 C98.54 1241.68 97.05 1232.26 95.57 1222.77 C95.15 1220.07 95.15 1220.07 94.11 1217.17 C92.82 1213.32 92.27 1209.46 91.67 1205.46 C91.25 1202.98 90.75 1200.6 90.17 1198.16 C88.74 1191.85 87.96 1185.45 87.11 1179.04 C86.84 1177.11 86.84 1177.11 86.57 1175.13 C85.86 1169.86 85.16 1164.6 84.47 1159.32 C83.79 1154.08 83.08 1148.87 82.11 1143.67 C80.2 1133.5 79.09 1123.27 78.17 1112.98 C77.56 1106.18 76.75 1099.47 75.67 1092.73 C73.51 1079.29 72.37 1065.72 71.11 1052.17 C64.54 1054.33 58.03 1056.62 51.54 1058.98 C45.03 1061.23 39.04 1062.52 32.23 1063.11 C26.12 1063.68 20.13 1064.44 14.11 1065.61 C-1.73 1068.61 -17.98 1070.16 -34.07 1070.96 C-36.84 1071.1 -36.84 1071.1 -39.31 1071.67 C-41.97 1072.18 -44.55 1072.32 -47.26 1072.41 C-54.58 1072.66 -61.53 1073.58 -68.71 1075.04 C-90.96 1079.47 -114.26 1080.34 -136.89 1081.17 C-139.14 1091.13 -140.2 1101.23 -141.39 1111.36 C-141.82 1114.93 -142.25 1118.51 -142.68 1122.09 C-142.78 1122.95 -142.88 1123.81 -142.99 1124.7 C-145.31 1144.06 -145.31 1144.06 -146.89 1152.98 C-147.75 1157.93 -148.32 1162.87 -148.83 1167.86 C-149.54 1174.61 -150.55 1181.25 -151.79 1187.93 C-152.63 1192.5 -153.26 1197.05 -153.77 1201.67 C-154.62 1208.83 -155.92 1215.85 -157.33 1222.92 C-157.54 1223.95 -157.74 1224.98 -157.95 1226.04 C-159.22 1232.23 -160.66 1238.36 -162.24 1244.49 C-162.86 1247.04 -163.34 1249.58 -163.77 1252.17 C-166.63 1266.33 -166.63 1266.33 -171.62 1270.68 C-174.02 1271.85 -176.31 1272.51 -178.89 1273.17 C-180.6 1273.66 -180.6 1273.66 -182.34 1274.17 C-212.08 1282.35 -260.75 1288.08 -288.89 1272.17 C-290.23 1271.5 -291.56 1270.83 -292.89 1270.17 C-292.89 1269.51 -292.89 1268.85 -292.89 1268.17 C-293.88 1267.84 -294.87 1267.51 -295.89 1267.17 C-299.32 1263.26 -300.7 1259.99 -300.49 1254.88 C-299.06 1248.37 -295.51 1239.91 -289.89 1236.17 C-289.38 1235.43 -288.86 1234.68 -288.33 1233.92 C-279.22 1223.63 -263.55 1219.91 -250.37 1218.99 C-220.81 1217.71 -220.81 1217.71 -209.89 1223.17 C-209.87 1222.5 -209.84 1221.83 -209.82 1221.14 C-209.7 1218.08 -209.58 1215.03 -209.46 1211.98 C-209.42 1210.93 -209.38 1209.87 -209.34 1208.78 C-209.3 1207.76 -209.25 1206.74 -209.21 1205.69 C-209.17 1204.75 -209.14 1203.81 -209.1 1202.85 C-208.9 1200.21 -208.43 1197.75 -207.89 1195.17 C-207.72 1192.6 -207.57 1190.05 -207.46 1187.48 C-207.1 1180.55 -206.44 1173.71 -205.62 1166.82 C-205.07 1162.04 -204.7 1157.29 -204.46 1152.48 C-204.1 1146.07 -203.35 1139.78 -202.46 1133.42 C-201.07 1123.44 -200.26 1113.47 -199.6 1103.42 C-198.93 1093.31 -197.99 1083.24 -196.89 1073.17 C-197.48 1073.04 -198.06 1072.91 -198.66 1072.78 C-200.28 1072.42 -201.91 1072.06 -203.53 1071.69 C-205.34 1071.29 -207.16 1070.89 -208.98 1070.49 C-229.24 1065.77 -249.1 1054.71 -265.83 1042.54 C-266.77 1041.86 -266.77 1041.86 -267.73 1041.16 C-271.44 1038.41 -274.69 1035.5 -277.89 1032.17 C-278.89 1031.17 -279.9 1030.18 -280.9 1029.2 C-281.94 1028.17 -282.98 1027.14 -284.02 1026.11 C-284.54 1025.59 -285.07 1025.07 -285.61 1024.54 C-288.27 1021.9 -290.86 1019.32 -292.89 1016.17 C-292.89 1015.51 -292.89 1014.85 -292.89 1014.17 C-293.55 1014.17 -294.21 1014.17 -294.89 1014.17 C-296.24 1012.39 -297.49 1010.54 -298.71 1008.67 C-299.41 1007.58 -300.12 1006.48 -300.85 1005.36 C-301.53 1004.31 -302.2 1003.25 -302.89 1002.17 C-303.43 1001.35 -303.97 1000.54 -304.53 999.7 C-307.89 994.54 -307.89 994.54 -307.89 991.17 C-308.55 991.17 -309.21 991.17 -309.89 991.17 C-310.13 990.65 -310.36 990.12 -310.59 989.59 C-311.08 988.48 -311.08 988.48 -311.58 987.36 C-311.95 986.52 -312.32 985.69 -312.7 984.83 C-313.46 983.14 -314.24 981.45 -315.06 979.79 C-326.09 956.98 -329.77 931.26 -332.58 906.34 C-332.84 904.2 -332.84 904.2 -333.4 902.32 C-336.59 888.53 -335.05 872.71 -335.02 858.67 C-335.02 854.91 -335.02 851.15 -335.03 847.39 C-335.03 844.95 -335.03 842.52 -335.03 840.09 C-335.03 838.99 -335.03 837.88 -335.03 836.74 C-335 825.22 -334.18 814.01 -331.77 802.73 C-331.44 801.2 -331.44 801.2 -331.11 799.63 C-325.53 774.32 -316.01 748.21 -300.4 727.25 C-298.83 725.14 -298.83 725.14 -297.4 722.66 C-295.97 720.29 -294.43 718.16 -292.71 715.98 C-291.78 714.81 -291.78 714.81 -290.84 713.61 C-290.2 712.8 -289.55 712 -288.89 711.17 C-288.28 710.39 -287.68 709.62 -287.05 708.82 C-281.49 701.8 -275.7 694.98 -269.89 688.17 C-269.28 687.44 -268.67 686.71 -268.04 685.96 C-265.13 682.53 -262.07 679.34 -258.89 676.17 C-257.89 674.99 -256.89 673.8 -255.89 672.61 C-254.14 670.53 -252.6 668.93 -250.46 667.23 C-247.44 664.8 -245.11 662.04 -242.64 659.07 C-240.87 657.14 -239 655.72 -236.89 654.17 C-235.51 652.59 -234.14 651 -232.79 649.39 C-230.41 646.61 -227.94 643.92 -225.46 641.23 C-221.77 637.23 -218.13 633.2 -214.57 629.09 C-212.69 626.93 -210.76 624.8 -208.83 622.67 C-205.81 619.28 -203.04 615.8 -200.41 612.09 C-198.89 610.17 -198.89 610.17 -196.59 607.91 C-191.02 602.24 -186.54 595.59 -181.89 589.17 C-180.86 587.75 -180.86 587.75 -179.8 586.31 C-169.64 571.46 -165.45 554.6 -165.46 536.86 C-165.46 536.14 -165.46 535.43 -165.46 534.69 C-165.49 522.84 -166.79 512.32 -170.89 501.17 C-171.21 500.29 -171.52 499.4 -171.84 498.49 C-174.96 489.63 -178.14 481.09 -182.94 472.98 C-183.89 471.17 -183.89 471.17 -183.89 469.17 C-189.51 473.9 -194.7 478.94 -199.79 484.23 C-201.89 486.17 -201.89 486.17 -203.89 486.17 C-204.2 486.97 -204.2 486.97 -204.52 487.79 C-206.43 491.09 -208.94 493.76 -211.89 496.17 C-212.55 496.17 -213.21 496.17 -213.89 496.17 C-214.16 496.81 -214.43 497.45 -214.71 498.11 C-215.89 500.17 -215.89 500.17 -218.89 501.17 C-219.22 502.16 -219.55 503.15 -219.89 504.17 C-221.45 505.7 -221.45 505.7 -223.43 507.33 C-228.76 511.84 -233.56 516.82 -238.42 521.82 C-239.44 522.86 -239.44 522.86 -240.48 523.91 C-241.09 524.54 -241.7 525.17 -242.33 525.81 C-243.89 527.17 -243.89 527.17 -245.89 527.17 C-245.89 527.83 -245.89 528.49 -245.89 529.17 C-246.55 529.17 -247.21 529.17 -247.89 529.17 C-248.22 530.16 -248.55 531.15 -248.89 532.17 C-250.34 533.59 -250.34 533.59 -252.24 535.14 C-255.79 538.15 -259.14 541.33 -262.43 544.64 C-263.15 545.37 -263.15 545.37 -263.89 546.11 C-265.4 547.63 -266.9 549.15 -268.39 550.67 C-274.15 556.5 -279.88 562.28 -286.12 567.61 C-289.55 570.62 -292.68 573.95 -295.84 577.24 C-297.16 578.59 -298.52 579.88 -299.89 581.17 C-300.55 581.17 -301.21 581.17 -301.89 581.17 C-302.27 582.1 -302.27 582.1 -302.64 583.04 C-304.13 585.57 -305.33 585.89 -307.89 587.17 C-308.2 587.79 -308.5 588.41 -308.81 589.05 C-310.01 591.4 -311.16 592.45 -313.21 594.11 C-317.94 598.08 -322.21 602.46 -326.5 606.9 C-327.93 608.36 -329.41 609.77 -330.89 611.17 C-331.55 611.17 -332.21 611.17 -332.89 611.17 C-333.27 612.03 -333.27 612.03 -333.64 612.92 C-335.08 615.5 -336.68 617.23 -338.89 619.17 C-339.55 619.17 -340.21 619.17 -340.89 619.17 C-341.22 620.16 -341.55 621.15 -341.89 622.17 C-342.55 622.17 -343.21 622.17 -343.89 622.17 C-343.89 622.83 -343.89 623.49 -343.89 624.17 C-344.55 624.17 -345.21 624.17 -345.89 624.17 C-345.89 624.83 -345.89 625.49 -345.89 626.17 C-347.54 627.79 -347.54 627.79 -349.71 629.61 C-352.21 631.71 -354.62 633.82 -356.89 636.17 C-360.76 634.93 -362.07 632.59 -363.96 629.12 C-364.89 627.17 -364.89 627.17 -365.7 625.09 C-367.32 621.13 -369.12 617.27 -370.92 613.39 C-371.31 612.55 -371.7 611.71 -372.1 610.84 C-373.34 608.16 -374.59 605.48 -375.83 602.79 C-377.07 600.12 -378.31 597.44 -379.55 594.76 C-380.32 593.1 -381.09 591.44 -381.86 589.78 C-384.6 583.87 -387.21 577.91 -389.65 571.87 C-389.95 571.14 -390.24 570.41 -390.55 569.66 C-391.16 568.15 -391.77 566.64 -392.38 565.13 C-392.67 564.41 -392.97 563.68 -393.27 562.93 C-393.54 562.28 -393.8 561.63 -394.07 560.96 C-394.96 558.9 -394.96 558.9 -396.89 556.17 C-396.89 554.85 -396.89 553.53 -396.89 552.17 C-397.55 552.17 -398.21 552.17 -398.89 552.17 C-400.92 547.78 -402.3 544.01 -402.89 539.17 C-403.55 539.17 -404.21 539.17 -404.89 539.17 C-405.23 538.26 -405.57 537.36 -405.92 536.43 C-406.36 535.25 -406.81 534.07 -407.27 532.86 C-407.71 531.68 -408.15 530.51 -408.61 529.3 C-409.81 526.08 -409.81 526.08 -411.89 523.17 C-411.89 521.85 -411.89 520.53 -411.89 519.17 C-412.55 519.17 -413.21 519.17 -413.89 519.17 C-414.27 518.28 -414.64 517.39 -415.02 516.48 C-416.55 512.9 -418.19 509.38 -419.83 505.86 C-426.89 490.59 -426.89 490.59 -426.89 486.17 C-427.55 486.17 -428.21 486.17 -428.89 486.17 C-429.22 485.37 -429.55 484.57 -429.88 483.75 C-432.61 477.12 -432.61 477.12 -435.71 470.67 C-436.89 468.17 -436.89 468.17 -436.89 464.17 C-437.55 464.17 -438.21 464.17 -438.89 464.17 C-439.29 463.05 -439.68 461.94 -440.08 460.79 C-441.68 456.49 -443.73 452.5 -445.91 448.46 C-446.89 446.17 -446.89 446.17 -446.89 442.17 C-448.48 442.14 -450.06 442.12 -451.64 442.11 C-452.97 442.09 -452.97 442.09 -454.32 442.07 C-456.81 442.07 -456.81 442.07 -458.82 442.66 C-468.34 445 -480.57 443.65 -489.17 438.91 C-491.24 437.46 -493.06 435.91 -494.89 434.17 C-495.77 433.39 -495.77 433.39 -496.66 432.6 C-504.52 424.71 -510.32 412.74 -510.64 401.61 C-510.41 397.58 -509.97 394.77 -507.83 391.36 C-504.62 386.18 -505.99 380.08 -506.54 374.29 C-507.46 364.14 -505.57 357.36 -499.35 349.12 C-491.19 340.97 -477.06 335.38 -465.67 335.11 C-465.08 335.13 -464.5 335.15 -463.89 335.17 C-464.19 334.61 -464.48 334.04 -464.78 333.46 C-474.69 313.13 -482.19 285.35 -476.78 262.74 C-472.93 251.56 -468.02 243.55 -457.27 237.92 C-451.09 234.93 -445.7 234.21 -438.89 234.17 C-437.56 234.11 -437.56 234.11 -436.2 234.05 C-430.73 233.9 -426.13 234.62 -420.89 236.17 C-420.89 236.83 -420.89 237.49 -420.89 238.17 C-419.9 238.17 -418.91 238.17 -417.89 238.17 C-417.89 238.83 -417.89 239.49 -417.89 240.17 C-417.34 240.37 -416.78 240.58 -416.21 240.79 C-408.83 245.18 -406.14 253.28 -403.89 261.17 C-403.24 266.35 -403.22 271.46 -403.33 276.67 C-403.34 277.36 -403.35 278.06 -403.35 278.78 C-403.5 292.35 -404.97 305.54 -409.3 318.46 C-411.8 325.03 -411.8 325.03 -410.76 331.63 C-408.97 333.83 -408.97 333.83 -406.92 335.89 C-396.42 347.72 -397.09 368.18 -397.89 383.17 C-398.27 387.97 -398.79 392.75 -399.36 397.54 C-399.44 398.28 -399.52 399.03 -399.61 399.8 C-399.81 401.46 -400.05 403.11 -400.32 404.76 C-401.4 412.46 -399.78 418.05 -397.02 425.23 C-396.18 427.53 -395.34 429.82 -394.5 432.12 C-394.07 433.28 -393.64 434.45 -393.19 435.65 C-391.13 441.25 -389.2 446.9 -387.27 452.54 C-386.52 454.72 -385.76 456.91 -385 459.09 C-384.64 460.12 -384.29 461.16 -383.92 462.22 C-380.4 472.35 -376.86 482.46 -373.26 492.56 C-368.82 505.02 -364.4 517.49 -360.25 530.06 C-356.46 541.55 -352.56 553 -347.89 564.17 C-344.1 560.59 -341.37 556.63 -338.48 552.31 C-336.89 550.17 -336.89 550.17 -334.89 549.17 C-333.93 547.49 -332.97 545.8 -332.04 544.11 C-330.21 541 -327.97 538.27 -325.71 535.48 C-324.72 534.24 -323.73 533 -322.75 531.76 C-322.02 530.85 -322.02 530.85 -321.27 529.91 C-314.71 521.61 -308.54 512.98 -302.27 504.45 C-282.48 477.58 -282.48 477.58 -272.74 465.49 C-270.8 463.11 -270.8 463.11 -268.89 460.17 C-264.68 454.24 -260.35 448.42 -255.89 442.67 C-252.21 437.91 -248.63 433.09 -245.11 428.2 C-243.37 425.81 -241.6 423.45 -239.8 421.1 C-239.26 420.39 -238.72 419.68 -238.16 418.94 C-237.09 417.54 -236.01 416.14 -234.93 414.74 C-231.12 409.86 -231.12 409.86 -228.89 404.17 C-229.49 402.02 -229.49 402.02 -230.96 399.98 C-231.52 399.11 -232.09 398.24 -232.67 397.35 C-235.99 392.61 -239.39 387.93 -242.8 383.25 C-248.49 375.42 -253.77 367.38 -258.89 359.17 C-259.38 358.4 -259.86 357.64 -260.36 356.85 C-272.47 337.6 -283.01 317.24 -288.89 295.17 C-289.18 294.19 -289.46 293.2 -289.75 292.19 C-291.9 283.44 -292.18 274.97 -292.21 265.98 C-292.22 264.22 -292.22 264.22 -292.22 262.42 C-292.17 255.76 -291.63 249.42 -290.4 242.87 C-289.87 240.06 -289.47 237.25 -289.08 234.42 C-286.11 215.37 -281.42 197.3 -274.89 179.17 C-274.39 177.74 -274.39 177.74 -273.87 176.28 C-264.07 148.84 -247.81 122.55 -226.89 102.17 C-225.92 101.17 -224.95 100.16 -223.98 99.15 C-217.09 92.04 -209.99 85.92 -201.89 80.17 C-200.73 79.3 -199.57 78.43 -198.41 77.56 C-186.43 68.58 -173.98 60.39 -160.97 52.97 C-157.99 51.22 -155.09 49.39 -152.18 47.53 C-144.27 42.48 -136.21 38.14 -127.76 34.08 C-126.04 33.24 -124.35 32.36 -122.66 31.47 C-100.7 19.97 -77.15 12.14 -52.96 7.04 C-49.41 6.29 -45.9 5.44 -42.39 4.54 C-28.22 0.96 -14.6 0.01 0 0 Z M-284.89 217.17 C-283.89 219.17 -283.89 219.17 -283.89 219.17 Z M-290.89 252.17 C-289.89 254.17 -289.89 254.17 -289.89 254.17 Z M-476.89 284.17 C-475.89 286.17 -475.89 286.17 -475.89 286.17 Z M-474.89 297.17 C-473.89 299.17 -473.89 299.17 -473.89 299.17 Z M372.11 435.17 C372.05 436.6 372.01 438.04 371.98 439.48 C371.96 440.28 371.93 441.08 371.91 441.91 C372.08 444.68 372.45 447.13 372.99 449.85 C374.57 458.16 375.28 466.57 376.11 474.98 C376.28 476.75 376.46 478.53 376.63 480.3 C376.89 482.92 377.15 485.54 377.41 488.16 C377.84 492.5 378.28 496.84 378.77 501.17 C383.68 545.86 382.16 592.58 377.11 637.17 C378.1 637.83 379.09 638.49 380.11 639.17 C381.19 638.05 381.19 638.05 382.29 636.92 C384.8 634.47 387.38 632.35 390.11 630.17 C391.23 629.02 391.23 629.02 392.39 627.86 C396.1 624.19 400.13 620.97 404.17 617.67 C406.97 615.29 409.51 612.77 412.11 610.17 C414.45 608.05 416.84 605.98 419.23 603.92 C420.22 603.06 420.22 603.06 421.23 602.19 C425.94 598.14 430.72 594.2 435.55 590.29 C438.22 588.07 440.79 585.76 443.36 583.42 C447.1 580 450.93 577.04 455.11 574.17 C456.55 572.72 457.98 571.27 459.41 569.8 C461.92 567.35 464.49 565.16 467.23 562.98 C472.18 558.98 476.9 554.78 481.58 550.48 C484.69 547.63 487.88 544.89 491.11 542.17 C490.93 538.29 490.1 537.16 487.3 534.37 C486.1 533.37 484.89 532.39 483.67 531.42 C482.38 530.36 481.1 529.3 479.82 528.23 C479.19 527.72 478.55 527.2 477.9 526.66 C475.45 524.62 473.09 522.5 470.73 520.36 C467.23 517.18 463.7 514.04 460.12 510.94 C458.63 509.63 457.15 508.3 455.68 506.96 C454.87 506.22 454.06 505.49 453.23 504.73 C452.49 504.05 451.75 503.37 450.99 502.67 C449.25 500.96 449.25 500.96 447.11 501.17 C446.78 500.18 446.45 499.19 446.11 498.17 C444.64 496.9 444.64 496.9 442.86 495.79 C439.55 493.54 436.91 491.04 434.11 488.17 C432.55 486.72 430.99 485.28 429.42 483.86 C428.65 483.16 427.88 482.46 427.09 481.74 C425.27 479.96 425.27 479.96 423.11 480.17 C422.76 479.3 422.76 479.3 422.41 478.42 C420.76 475.58 418.83 474.12 416.23 472.11 C412.03 468.77 408.02 465.33 404.11 461.67 C399.53 457.41 394.8 453.43 389.92 449.51 C386.17 446.39 382.61 443.08 379.08 439.71 C376.74 437.51 375.19 436.2 372.11 435.17 Z M-163.89 529.17 C-163.89 534.12 -163.89 539.07 -163.89 544.17 C-163.56 544.17 -163.23 544.17 -162.89 544.17 C-162.89 539.22 -162.89 534.27 -162.89 529.17 C-163.22 529.17 -163.55 529.17 -163.89 529.17 Z M492.11 540.17 C493.11 542.17 493.11 542.17 493.11 542.17 Z M343.11 772.17 C343.77 772.83 344.43 773.49 345.11 774.17 C345.11 773.51 345.11 772.85 345.11 772.17 C344.45 772.17 343.79 772.17 343.11 772.17 Z M-332.89 814.17 C-331.89 817.17 -331.89 817.17 -331.89 817.17 Z M-332.89 896.17 C-331.89 900.17 -331.89 900.17 -331.89 900.17 Z M-329.89 916.17 C-328.89 919.17 -328.89 919.17 -328.89 919.17 Z M-326.89 936.17 C-325.89 938.17 -325.89 938.17 -325.89 938.17 Z M73.11 1060.17 C74.11 1064.17 74.11 1064.17 74.11 1064.17 Z M76.11 1086.17 C77.11 1090.17 77.11 1090.17 77.11 1090.17 Z M-198.89 1104.17 C-197.89 1108.17 -197.89 1108.17 -197.89 1108.17 Z M79.11 1111.17 C80.11 1115.17 80.11 1115.17 80.11 1115.17 Z M82.11 1135.17 C83.11 1138.17 83.11 1138.17 83.11 1138.17 Z M-201.89 1139.17 C-200.89 1142.17 -200.89 1142.17 -200.89 1142.17 Z M-202.89 1144.17 C-202.89 1145.82 -202.89 1147.47 -202.89 1149.17 C-202.56 1149.17 -202.23 1149.17 -201.89 1149.17 C-201.89 1147.52 -201.89 1145.87 -201.89 1144.17 C-202.22 1144.17 -202.55 1144.17 -202.89 1144.17 Z M85.11 1158.17 C86.11 1160.17 86.11 1160.17 86.11 1160.17 Z M-203.89 1160.17 C-202.89 1162.17 -202.89 1162.17 -202.89 1162.17 Z M-204.89 1172.17 C-204.89 1173.82 -204.89 1175.47 -204.89 1177.17 C-204.56 1177.17 -204.23 1177.17 -203.89 1177.17 C-203.89 1175.52 -203.89 1173.87 -203.89 1172.17 C-204.22 1172.17 -204.55 1172.17 -204.89 1172.17 Z M88.11 1174.17 C89.11 1178.17 89.11 1178.17 89.11 1178.17 Z M-205.89 1178.17 C-205.89 1179.82 -205.89 1181.47 -205.89 1183.17 C-205.56 1183.17 -205.23 1183.17 -204.89 1183.17 C-204.89 1181.52 -204.89 1179.87 -204.89 1178.17 C-205.22 1178.17 -205.55 1178.17 -205.89 1178.17 Z M90.11 1191.17 C91.11 1193.17 91.11 1193.17 91.11 1193.17 Z M91.11 1194.17 C92.11 1197.17 92.11 1197.17 92.11 1197.17 Z M-207.89 1200.17 C-206.89 1203.17 -206.89 1203.17 -206.89 1203.17 Z M169.11 1206.17 C173.11 1207.17 173.11 1207.17 173.11 1207.17 Z M184.11 1206.17 C188.11 1207.17 188.11 1207.17 188.11 1207.17 Z M-252.89 1220.17 C-252.89 1220.5 -252.89 1220.83 -252.89 1221.17 C-250.91 1221.17 -248.93 1221.17 -246.89 1221.17 C-246.89 1220.84 -246.89 1220.51 -246.89 1220.17 C-248.87 1220.17 -250.85 1220.17 -252.89 1220.17 Z M-238.89 1220.17 C-238.89 1220.5 -238.89 1220.83 -238.89 1221.17 C-236.25 1221.17 -233.61 1221.17 -230.89 1221.17 C-230.89 1220.84 -230.89 1220.51 -230.89 1220.17 C-233.53 1220.17 -236.17 1220.17 -238.89 1220.17 Z " fill="#9D3320" transform="translate(509.89453125,-0.16796875)"/>
<path d="M0 0 C-0.42 5.87 -2.97 9.54 -6.19 14.25 C-7.2 15.78 -8.21 17.3 -9.23 18.83 C-9.71 19.55 -10.2 20.28 -10.7 21.03 C-13.28 24.93 -15.63 28.96 -18 33 C-18.75 34.26 -19.51 35.52 -20.27 36.79 C-28.11 49.92 -35.45 63.25 -41.73 77.21 C-42.8 79.56 -43.93 81.84 -45.12 84.12 C-47.12 88.04 -48.55 92.11 -50.01 96.24 C-50.89 98.69 -51.83 101.09 -52.81 103.5 C-57.63 115.47 -62.16 127.39 -65 140 C-65.49 141.89 -65.98 143.78 -66.47 145.66 C-68.82 154.69 -70.64 163.77 -72 173 C-72.17 174.16 -72.34 175.31 -72.52 176.51 C-73.89 186.26 -74.36 195.85 -74.31 205.69 C-74.31 206.79 -74.31 206.79 -74.31 207.92 C-74.24 225.55 -72.08 242.08 -67 259 C-66.7 260.08 -66.41 261.17 -66.1 262.28 C-62.58 274.68 -57 286.19 -50 297 C-49.52 297.75 -49.04 298.49 -48.54 299.26 C-40.43 311.88 -40.43 311.88 -30.75 323.25 C-28.4 325.6 -26.2 328.01 -24 330.5 C-20.36 334.63 -16.56 338.52 -12.56 342.31 C-10.57 344.41 -8.9 346.4 -7.19 348.71 C-5.23 351.36 -3.24 353.98 -1.21 356.58 C19.17 382.82 33.63 411.76 41.29 444.04 C41.77 446.03 42.28 448 42.83 449.96 C45.57 460.66 45.45 471.28 45.39 482.26 C45.38 485.53 45.39 488.8 45.41 492.06 C45.43 509.9 43.81 527.16 38.94 544.38 C38.68 545.32 38.43 546.26 38.16 547.23 C37.46 549.83 36.73 552.41 36 555 C35.66 556.21 35.33 557.41 34.98 558.65 C24.16 595.59 7.14 630.11 -11.85 663.44 C-14.19 667.56 -16.49 671.69 -18.76 675.85 C-23.61 684.71 -28.79 693.35 -34.09 701.95 C-37.1 706.83 -40 711.73 -42.75 716.76 C-45.05 720.89 -47.5 724.94 -49.94 729 C-50.44 729.84 -50.94 730.68 -51.45 731.54 C-54.38 736.43 -57.44 741.19 -60.63 745.91 C-61.85 747.77 -62.98 749.63 -64.06 751.56 C-66.65 756.15 -69.47 760.58 -72.29 765.04 C-74.97 769.3 -77.51 773.62 -80 778 C-81.44 780.45 -82.91 782.88 -84.38 785.31 C-84.97 786.3 -84.97 786.3 -85.57 787.31 C-87.24 790.09 -88.91 792.86 -90.64 795.6 C-93.86 800.75 -96.58 806.08 -99.19 811.56 C-99.52 812.26 -99.85 812.96 -100.2 813.67 C-113.97 843.19 -112.77 877.7 -102 908 C-100.82 910.84 -99.59 913.63 -98.25 916.4 C-97.3 918.37 -96.42 920.37 -95.57 922.38 C-87.09 941.91 -75.09 960.94 -60 976 C-58.87 977.44 -57.76 978.9 -56.69 980.38 C-53.74 984.24 -50.56 987.28 -46.84 990.38 C-45 992 -45 992 -42.5 995.06 C-39.92 998.09 -37.31 1000.15 -34.06 1002.41 C-32 1004 -32 1004 -29.73 1006.31 C-26.47 1009.52 -22.98 1012.21 -19.31 1014.94 C-18.6 1015.47 -17.89 1016 -17.16 1016.54 C-11.95 1020.39 -6.63 1023.81 -1 1027 C1.43 1028.5 3.86 1030 6.29 1031.51 C13.39 1035.41 21.04 1038.27 28.56 1041.25 C29.48 1041.61 30.39 1041.98 31.33 1042.35 C33.55 1043.24 35.78 1044.12 38 1045 C38 1045.33 38 1045.66 38 1046 C15.1 1049.47 -7.87 1051 -31 1052 C-33.25 1061.96 -34.31 1072.06 -35.5 1082.19 C-35.93 1085.76 -36.35 1089.34 -36.78 1092.92 C-36.88 1093.78 -36.99 1094.65 -37.09 1095.54 C-39.42 1114.9 -39.42 1114.9 -41 1123.81 C-41.86 1128.76 -42.42 1133.7 -42.94 1138.69 C-43.64 1145.45 -44.65 1152.08 -45.9 1158.76 C-46.74 1163.33 -47.37 1167.88 -47.88 1172.5 C-48.72 1179.66 -50.02 1186.68 -51.44 1193.75 C-51.64 1194.78 -51.85 1195.81 -52.06 1196.87 C-53.33 1203.06 -54.76 1209.2 -56.35 1215.32 C-56.97 1217.87 -57.45 1220.41 -57.88 1223 C-60.74 1237.16 -60.74 1237.16 -65.73 1241.51 C-68.12 1242.68 -70.41 1243.35 -73 1244 C-74.71 1244.5 -74.71 1244.5 -76.45 1245 C-106.18 1253.18 -154.86 1258.91 -183 1243 C-184.33 1242.33 -185.66 1241.66 -187 1241 C-187 1240.34 -187 1239.68 -187 1239 C-187.99 1238.67 -188.98 1238.34 -190 1238 C-193.42 1234.09 -194.8 1230.82 -194.59 1225.71 C-193.17 1219.2 -189.62 1210.75 -184 1207 C-183.48 1206.26 -182.97 1205.52 -182.44 1204.75 C-173.32 1194.46 -157.65 1190.75 -144.47 1189.82 C-114.92 1188.54 -114.92 1188.54 -104 1194 C-103.97 1193.33 -103.95 1192.66 -103.92 1191.97 C-103.81 1188.92 -103.69 1185.86 -103.56 1182.81 C-103.52 1181.76 -103.48 1180.7 -103.44 1179.62 C-103.4 1178.59 -103.36 1177.57 -103.32 1176.52 C-103.28 1175.58 -103.24 1174.64 -103.21 1173.68 C-103 1171.05 -102.54 1168.58 -102 1166 C-101.82 1163.44 -101.68 1160.88 -101.56 1158.31 C-101.21 1151.39 -100.55 1144.54 -99.73 1137.65 C-99.17 1132.87 -98.8 1128.12 -98.56 1123.31 C-98.21 1116.9 -97.45 1110.61 -96.56 1104.25 C-95.18 1094.27 -94.36 1084.31 -93.7 1074.26 C-93.04 1064.14 -92.09 1054.08 -91 1044 C-91.58 1043.87 -92.16 1043.74 -92.76 1043.61 C-94.39 1043.25 -96.01 1042.89 -97.63 1042.53 C-99.45 1042.12 -101.27 1041.72 -103.08 1041.32 C-123.34 1036.6 -143.21 1025.54 -159.94 1013.38 C-160.56 1012.92 -161.19 1012.46 -161.84 1011.99 C-165.54 1009.25 -168.8 1006.34 -172 1003 C-173 1002.01 -174 1001.02 -175.01 1000.03 C-176.05 999 -177.09 997.97 -178.12 996.94 C-178.65 996.42 -179.17 995.9 -179.71 995.37 C-182.37 992.73 -184.96 990.16 -187 987 C-187 986.34 -187 985.68 -187 985 C-187.66 985 -188.32 985 -189 985 C-190.34 983.22 -191.6 981.37 -192.81 979.5 C-193.52 978.41 -194.23 977.32 -194.96 976.19 C-195.63 975.14 -196.31 974.09 -197 973 C-197.54 972.18 -198.08 971.37 -198.64 970.53 C-202 965.37 -202 965.37 -202 962 C-202.66 962 -203.32 962 -204 962 C-204.23 961.48 -204.46 960.96 -204.7 960.42 C-205.19 959.31 -205.19 959.31 -205.69 958.19 C-206.05 957.35 -206.42 956.52 -206.8 955.66 C-207.56 953.97 -208.35 952.29 -209.17 950.62 C-220.2 927.82 -223.87 902.09 -226.69 877.17 C-226.95 875.04 -226.95 875.04 -227.5 873.15 C-230.69 859.36 -229.15 843.55 -229.13 829.51 C-229.12 825.74 -229.13 821.98 -229.14 818.22 C-229.14 815.79 -229.13 813.35 -229.13 810.92 C-229.13 809.82 -229.14 808.71 -229.14 807.57 C-229.1 796.05 -228.29 784.84 -225.88 773.56 C-225.55 772.03 -225.55 772.03 -225.22 770.46 C-219.63 745.15 -210.12 719.04 -194.51 698.08 C-192.93 695.97 -192.93 695.97 -191.5 693.5 C-190.07 691.12 -188.53 688.99 -186.81 686.81 C-185.89 685.64 -185.89 685.64 -184.94 684.44 C-184.3 683.64 -183.66 682.83 -183 682 C-182.39 681.23 -181.78 680.45 -181.15 679.65 C-175.59 672.63 -169.81 665.81 -164 659 C-163.39 658.27 -162.77 657.54 -162.14 656.79 C-159.24 653.36 -156.18 650.18 -153 647 C-151.99 645.82 -150.99 644.63 -150 643.44 C-148.25 641.36 -146.7 639.76 -144.56 638.06 C-141.54 635.63 -139.22 632.88 -136.75 629.9 C-134.97 627.97 -133.11 626.56 -131 625 C-129.62 623.42 -128.24 621.83 -126.9 620.22 C-124.52 617.44 -122.04 614.75 -119.56 612.06 C-115.88 608.06 -112.24 604.04 -108.68 599.93 C-106.79 597.76 -104.86 595.63 -102.94 593.5 C-99.91 590.11 -97.14 586.63 -94.52 582.92 C-93 581 -93 581 -90.69 578.74 C-85.13 573.07 -80.65 566.43 -76 560 C-74.97 558.58 -74.97 558.58 -73.91 557.14 C-63.74 542.29 -59.55 525.43 -59.56 507.69 C-59.56 506.97 -59.56 506.26 -59.56 505.52 C-59.6 493.68 -60.9 483.15 -65 472 C-65.31 471.12 -65.62 470.23 -65.94 469.32 C-69.07 460.47 -72.25 451.92 -77.05 443.82 C-78 442 -78 442 -78 440 C-83.61 444.74 -88.8 449.77 -93.9 455.06 C-96 457 -96 457 -98 457 C-98.31 457.8 -98.31 457.8 -98.62 458.62 C-100.53 461.92 -103.05 464.59 -106 467 C-106.66 467 -107.32 467 -108 467 C-108.27 467.64 -108.54 468.28 -108.81 468.94 C-110 471 -110 471 -113 472 C-113.33 472.99 -113.66 473.98 -114 475 C-115.55 476.53 -115.55 476.53 -117.54 478.16 C-122.86 482.68 -127.67 487.65 -132.53 492.65 C-133.55 493.69 -133.55 493.69 -134.59 494.75 C-135.19 495.37 -135.8 496 -136.43 496.64 C-138 498 -138 498 -140 498 C-140 498.66 -140 499.32 -140 500 C-140.66 500 -141.32 500 -142 500 C-142.33 500.99 -142.66 501.98 -143 503 C-144.44 504.42 -144.44 504.42 -146.34 505.97 C-149.9 508.99 -153.25 512.16 -156.53 515.47 C-157.26 516.2 -157.26 516.2 -158 516.95 C-159.5 518.46 -161 519.98 -162.5 521.5 C-168.25 527.33 -173.98 533.11 -180.22 538.44 C-183.66 541.45 -186.78 544.78 -189.95 548.08 C-191.26 549.42 -192.63 550.71 -194 552 C-194.66 552 -195.32 552 -196 552 C-196.37 552.93 -196.37 552.93 -196.75 553.88 C-198.24 556.4 -199.44 556.72 -202 558 C-202.3 558.62 -202.61 559.24 -202.92 559.88 C-204.12 562.23 -205.27 563.29 -207.31 564.94 C-212.05 568.91 -216.32 573.29 -220.61 577.73 C-222.04 579.19 -223.51 580.6 -225 582 C-225.66 582 -226.32 582 -227 582 C-227.37 582.87 -227.37 582.87 -227.75 583.75 C-229.18 586.33 -230.78 588.06 -233 590 C-233.66 590 -234.32 590 -235 590 C-235.33 590.99 -235.66 591.98 -236 593 C-236.66 593 -237.32 593 -238 593 C-238 593.66 -238 594.32 -238 595 C-238.66 595 -239.32 595 -240 595 C-240 595.66 -240 596.32 -240 597 C-241.64 598.62 -241.64 598.62 -243.81 600.44 C-246.31 602.54 -248.72 604.65 -251 607 C-254.86 605.76 -256.18 603.42 -258.07 599.95 C-259 598 -259 598 -259.81 595.93 C-261.42 591.97 -263.23 588.1 -265.03 584.23 C-265.42 583.38 -265.81 582.54 -266.21 581.68 C-267.45 578.99 -268.69 576.31 -269.94 573.62 C-271.18 570.95 -272.42 568.27 -273.66 565.6 C-274.43 563.93 -275.2 562.27 -275.97 560.61 C-278.7 554.7 -281.32 548.75 -283.75 542.7 C-284.05 541.97 -284.35 541.24 -284.65 540.49 C-285.27 538.98 -285.88 537.47 -286.48 535.96 C-286.78 535.24 -287.07 534.51 -287.38 533.77 C-287.64 533.11 -287.91 532.46 -288.18 531.79 C-289.07 529.73 -289.07 529.73 -291 527 C-291 525.68 -291 524.36 -291 523 C-291.66 523 -292.32 523 -293 523 C-295.02 518.61 -296.41 514.85 -297 510 C-297.66 510 -298.32 510 -299 510 C-299.51 508.64 -299.51 508.64 -300.02 507.26 C-300.47 506.08 -300.92 504.9 -301.38 503.69 C-301.82 502.52 -302.26 501.34 -302.71 500.14 C-303.91 496.91 -303.91 496.91 -306 494 C-306 492.68 -306 491.36 -306 490 C-306.66 490 -307.32 490 -308 490 C-308.37 489.11 -308.74 488.23 -309.12 487.31 C-310.65 483.73 -312.29 480.21 -313.94 476.69 C-321 461.42 -321 461.42 -321 457 C-321.66 457 -322.32 457 -323 457 C-323.33 456.2 -323.65 455.41 -323.99 454.59 C-326.71 447.96 -326.71 447.96 -329.81 441.5 C-331 439 -331 439 -331 435 C-331.66 435 -332.32 435 -333 435 C-333.39 433.89 -333.78 432.77 -334.19 431.62 C-335.78 427.32 -337.83 423.33 -340.01 419.3 C-341 417 -341 417 -341 413 C-342.58 412.97 -344.17 412.95 -345.75 412.94 C-347.07 412.92 -347.07 412.92 -348.42 412.9 C-350.91 412.91 -350.91 412.91 -352.92 413.49 C-362.45 415.83 -374.67 414.48 -383.28 409.75 C-385.35 408.29 -387.16 406.74 -389 405 C-389.87 404.22 -389.87 404.22 -390.76 403.43 C-398.63 395.55 -404.43 383.57 -404.75 372.44 C-404.52 368.41 -404.07 365.6 -401.94 362.19 C-398.73 357.01 -400.1 350.91 -400.64 345.12 C-401.56 334.97 -399.68 328.19 -393.45 319.95 C-385.3 311.8 -371.17 306.21 -359.77 305.94 C-359.19 305.96 -358.6 305.98 -358 306 C-358.29 305.44 -358.58 304.88 -358.88 304.3 C-368.8 283.96 -376.3 256.19 -370.89 233.57 C-367.03 222.39 -362.13 214.38 -351.38 208.75 C-345.19 205.77 -339.8 205.05 -333 205 C-331.67 204.94 -331.67 204.94 -330.3 204.89 C-324.84 204.73 -320.24 205.45 -315 207 C-315 207.66 -315 208.32 -315 209 C-314.01 209 -313.02 209 -312 209 C-312 209.66 -312 210.32 -312 211 C-311.44 211.21 -310.89 211.41 -310.31 211.62 C-302.93 216.01 -300.25 224.11 -298 232 C-297.35 237.18 -297.32 242.29 -297.44 247.5 C-297.45 248.54 -297.45 248.54 -297.46 249.61 C-297.61 263.18 -299.07 276.37 -303.4 289.29 C-305.91 295.86 -305.91 295.86 -304.87 302.46 C-303.08 304.66 -303.08 304.66 -301.02 306.72 C-290.53 318.55 -291.19 339.01 -292 354 C-292.37 358.8 -292.9 363.58 -293.46 368.37 C-293.55 369.11 -293.63 369.86 -293.71 370.63 C-293.91 372.29 -294.16 373.94 -294.43 375.59 C-295.51 383.29 -293.89 388.88 -291.12 396.06 C-290.29 398.36 -289.45 400.65 -288.61 402.95 C-288.18 404.12 -287.74 405.28 -287.29 406.48 C-285.23 412.08 -283.31 417.73 -281.38 423.38 C-280.62 425.56 -279.87 427.74 -279.11 429.92 C-278.75 430.95 -278.39 431.99 -278.02 433.06 C-274.51 443.18 -270.97 453.3 -267.37 463.39 C-262.92 475.86 -258.5 488.32 -254.36 500.89 C-250.57 512.38 -246.66 523.83 -242 535 C-238.21 531.42 -235.48 527.46 -232.59 523.14 C-231 521 -231 521 -229 520 C-228.04 518.32 -227.08 516.64 -226.14 514.94 C-224.31 511.84 -222.08 509.1 -219.81 506.31 C-218.82 505.07 -217.84 503.83 -216.85 502.59 C-216.12 501.68 -216.12 501.68 -215.38 500.75 C-208.82 492.44 -202.65 483.81 -196.37 475.28 C-176.58 448.41 -176.58 448.41 -166.84 436.32 C-164.9 433.94 -164.9 433.94 -163 431 C-158.79 425.07 -154.45 419.25 -150 413.5 C-146.32 408.74 -142.73 403.92 -139.22 399.04 C-137.47 396.65 -135.7 394.29 -133.91 391.93 C-133.36 391.22 -132.82 390.51 -132.27 389.78 C-131.19 388.37 -130.12 386.97 -129.04 385.57 C-125.22 380.69 -125.22 380.69 -123 375 C-123.6 372.85 -123.6 372.85 -125.06 370.81 C-125.63 369.94 -126.19 369.07 -126.77 368.18 C-130.09 363.44 -133.49 358.76 -136.9 354.08 C-142.6 346.25 -147.87 338.21 -153 330 C-153.48 329.23 -153.97 328.47 -154.46 327.68 C-166.58 308.43 -177.12 288.07 -183 266 C-183.28 265.02 -183.56 264.04 -183.85 263.02 C-186.01 254.27 -186.29 245.8 -186.31 236.81 C-186.32 235.05 -186.32 235.05 -186.33 233.25 C-186.28 226.59 -185.74 220.25 -184.51 213.7 C-183.98 210.89 -183.57 208.08 -183.19 205.25 C-180.21 186.2 -175.53 168.14 -169 150 C-168.49 148.57 -168.49 148.57 -167.98 147.11 C-158.17 119.67 -141.91 93.38 -121 73 C-120.03 72 -119.06 70.99 -118.09 69.98 C-111.19 62.87 -104.1 56.75 -96 51 C-94.83 50.13 -93.67 49.26 -92.51 48.39 C-80.55 39.42 -68.11 31.23 -55.11 23.83 C-52.68 22.4 -50.3 20.94 -47.92 19.42 C-47.21 18.97 -46.5 18.52 -45.76 18.05 C-44.37 17.17 -42.99 16.27 -41.61 15.37 C-37.82 12.96 -34.35 11.25 -30 10 C-23.24 7.92 -16.87 4.92 -10.44 2.01 C-9.52 1.61 -8.61 1.21 -7.68 0.8 C-6.85 0.43 -6.02 0.06 -5.17 -0.32 C-3 -1 -3 -1 0 0 Z M-179 188 C-178 190 -178 190 -178 190 Z M-185 223 C-184 225 -184 225 -184 225 Z M-371 255 C-370 257 -370 257 -370 257 Z M-369 268 C-368 270 -368 270 -368 270 Z M-58 500 C-58 504.95 -58 509.9 -58 515 C-57.67 515 -57.34 515 -57 515 C-57 510.05 -57 505.1 -57 500 C-57.33 500 -57.66 500 -58 500 Z M-227 785 C-226 788 -226 788 -226 788 Z M-227 867 C-226 871 -226 871 -226 871 Z M-224 887 C-223 890 -223 890 -223 890 Z M-221 907 C-220 909 -220 909 -220 909 Z M-93 1075 C-92 1079 -92 1079 -92 1079 Z M-96 1110 C-95 1113 -95 1113 -95 1113 Z M-97 1115 C-97 1116.65 -97 1118.3 -97 1120 C-96.67 1120 -96.34 1120 -96 1120 C-96 1118.35 -96 1116.7 -96 1115 C-96.33 1115 -96.66 1115 -97 1115 Z M-98 1131 C-97 1133 -97 1133 -97 1133 Z M-99 1143 C-99 1144.65 -99 1146.3 -99 1148 C-98.67 1148 -98.34 1148 -98 1148 C-98 1146.35 -98 1144.7 -98 1143 C-98.33 1143 -98.66 1143 -99 1143 Z M-100 1149 C-100 1150.65 -100 1152.3 -100 1154 C-99.67 1154 -99.34 1154 -99 1154 C-99 1152.35 -99 1150.7 -99 1149 C-99.33 1149 -99.66 1149 -100 1149 Z M-102 1171 C-101 1174 -101 1174 -101 1174 Z M-147 1191 C-147 1191.33 -147 1191.66 -147 1192 C-145.02 1192 -143.04 1192 -141 1192 C-141 1191.67 -141 1191.34 -141 1191 C-142.98 1191 -144.96 1191 -147 1191 Z M-133 1191 C-133 1191.33 -133 1191.66 -133 1192 C-130.36 1192 -127.72 1192 -125 1192 C-125 1191.67 -125 1191.34 -125 1191 C-127.64 1191 -130.28 1191 -133 1191 Z " fill="#B33A25" transform="translate(404,29)"/>
<path d="M0 0 C0 0.66 0 1.32 0 2 C0.99 2 1.98 2 3 2 C3 2.66 3 3.32 3 4 C3.56 4.21 4.11 4.41 4.69 4.62 C12.07 9.01 14.75 17.11 17 25 C17.65 30.18 17.68 35.29 17.56 40.5 C17.55 41.54 17.55 41.54 17.54 42.61 C17.39 56.18 15.93 69.37 11.6 82.29 C9.09 88.86 9.09 88.86 10.13 95.46 C11.92 97.66 11.92 97.66 13.98 99.72 C24.47 111.55 23.81 132.01 23 147 C22.63 151.8 22.1 156.58 21.54 161.37 C21.45 162.11 21.37 162.86 21.29 163.63 C21.09 165.29 20.84 166.94 20.57 168.59 C19.49 176.29 21.11 181.88 23.88 189.06 C24.71 191.36 25.55 193.65 26.39 195.95 C26.82 197.12 27.26 198.28 27.71 199.48 C29.77 205.08 31.69 210.73 33.62 216.38 C34.38 218.56 35.13 220.74 35.89 222.92 C36.43 224.47 36.43 224.47 36.98 226.06 C40.49 236.18 44.03 246.3 47.63 256.39 C52.08 268.86 56.5 281.32 60.64 293.89 C64.43 305.38 68.34 316.83 73 328 C76.79 324.42 79.52 320.46 82.41 316.14 C84 314 84 314 86 313 C86.96 311.32 87.92 309.64 88.86 307.94 C90.69 304.84 92.92 302.1 95.19 299.31 C96.18 298.07 97.16 296.83 98.15 295.59 C98.88 294.68 98.88 294.68 99.62 293.75 C106.18 285.44 112.35 276.81 118.63 268.28 C138.42 241.41 138.42 241.41 148.16 229.32 C150.1 226.94 150.1 226.94 152 224 C156.21 218.07 160.55 212.25 165 206.5 C168.68 201.74 172.27 196.92 175.79 192.04 C177.52 189.65 179.28 187.29 181.06 184.93 C181.6 184.22 182.13 183.51 182.69 182.78 C183.75 181.37 184.81 179.97 185.88 178.57 C188.47 175.14 190.79 171.69 193 168 C195.64 165.49 197.48 163.98 201.23 164.02 C215.8 166.48 230.18 175.24 239 187 C239.61 187.75 240.21 188.5 240.84 189.27 C246.85 197.13 250.98 206.98 250.53 217.05 C249.49 220.86 247.05 222.62 244 225 C243.34 225 242.68 225 242 225 C241.73 225.64 241.46 226.28 241.19 226.94 C240 229 240 229 237 230 C236.3 231.32 235.64 232.65 235 234 C233.84 235.34 232.63 236.64 231.38 237.89 C230.67 238.6 229.96 239.31 229.23 240.04 C228.5 240.77 227.76 241.5 227 242.25 C226.26 243 225.53 243.74 224.77 244.51 C224.06 245.21 223.35 245.92 222.62 246.64 C221.98 247.29 221.33 247.93 220.66 248.59 C219 250 219 250 217 250 C216.69 250.8 216.69 250.8 216.38 251.62 C214.47 254.92 211.95 257.59 209 260 C208.34 260 207.68 260 207 260 C206.73 260.64 206.46 261.28 206.19 261.94 C205 264 205 264 202 265 C201.67 265.99 201.34 266.98 201 268 C199.45 269.53 199.45 269.53 197.46 271.16 C192.14 275.68 187.33 280.65 182.47 285.65 C181.45 286.69 181.45 286.69 180.41 287.75 C179.81 288.37 179.2 289 178.57 289.64 C177 291 177 291 175 291 C175 291.66 175 292.32 175 293 C174.34 293 173.68 293 173 293 C172.67 293.99 172.34 294.98 172 296 C170.56 297.42 170.56 297.42 168.66 298.97 C165.1 301.99 161.75 305.16 158.47 308.47 C157.98 308.96 157.5 309.44 157 309.95 C155.5 311.46 154 312.98 152.5 314.5 C146.75 320.33 141.02 326.11 134.78 331.44 C131.34 334.45 128.22 337.78 125.05 341.08 C123.74 342.42 122.37 343.71 121 345 C120.34 345 119.68 345 119 345 C118.75 345.62 118.5 346.24 118.25 346.88 C116.76 349.4 115.56 349.72 113 351 C112.7 351.62 112.39 352.24 112.08 352.88 C110.88 355.23 109.73 356.29 107.69 357.94 C102.95 361.91 98.68 366.29 94.39 370.73 C92.96 372.19 91.49 373.6 90 375 C89.34 375 88.68 375 88 375 C87.63 375.87 87.63 375.87 87.25 376.75 C85.82 379.33 84.22 381.06 82 383 C81.34 383 80.68 383 80 383 C79.67 383.99 79.34 384.98 79 386 C78.34 386 77.68 386 77 386 C77 386.66 77 387.32 77 388 C76.34 388 75.68 388 75 388 C75 388.66 75 389.32 75 390 C73.36 391.62 73.36 391.62 71.19 393.44 C68.69 395.54 66.28 397.65 64 400 C60.14 398.76 58.82 396.42 56.93 392.95 C56 391 56 391 55.19 388.93 C53.58 384.97 51.77 381.1 49.97 377.23 C49.39 375.96 49.39 375.96 48.79 374.68 C47.55 371.99 46.31 369.31 45.06 366.62 C43.82 363.95 42.58 361.27 41.34 358.6 C40.57 356.93 39.8 355.27 39.03 353.61 C36.3 347.7 33.68 341.75 31.25 335.7 C30.95 334.97 30.65 334.24 30.35 333.49 C29.73 331.98 29.12 330.47 28.52 328.96 C28.22 328.24 27.93 327.51 27.62 326.77 C27.36 326.11 27.09 325.46 26.82 324.79 C25.93 322.73 25.93 322.73 24 320 C24 318.68 24 317.36 24 316 C23.34 316 22.68 316 22 316 C19.98 311.61 18.59 307.85 18 303 C17.34 303 16.68 303 16 303 C15.49 301.64 15.49 301.64 14.98 300.26 C14.53 299.08 14.08 297.9 13.62 296.69 C13.18 295.52 12.74 294.34 12.29 293.14 C11.09 289.91 11.09 289.91 9 287 C9 285.68 9 284.36 9 283 C8.34 283 7.68 283 7 283 C6.63 282.11 6.26 281.23 5.88 280.31 C4.35 276.73 2.71 273.21 1.06 269.69 C-6 254.42 -6 254.42 -6 250 C-6.66 250 -7.32 250 -8 250 C-8.33 249.2 -8.65 248.41 -8.99 247.59 C-11.71 240.96 -11.71 240.96 -14.81 234.5 C-16 232 -16 232 -16 228 C-16.66 228 -17.32 228 -18 228 C-18.39 226.89 -18.78 225.77 -19.19 224.62 C-20.78 220.32 -22.83 216.33 -25.01 212.3 C-26 210 -26 210 -26 206 C-27.58 205.97 -29.17 205.95 -30.75 205.94 C-32.07 205.92 -32.07 205.92 -33.42 205.9 C-35.91 205.91 -35.91 205.91 -37.92 206.49 C-47.45 208.83 -59.67 207.48 -68.28 202.75 C-70.35 201.29 -72.16 199.74 -74 198 C-74.58 197.48 -75.16 196.96 -75.76 196.43 C-83.63 188.55 -89.43 176.57 -89.75 165.44 C-89.52 161.41 -89.07 158.6 -86.94 155.19 C-83.73 150.01 -85.1 143.91 -85.64 138.12 C-86.56 127.97 -84.68 121.19 -78.45 112.95 C-70.3 104.8 -56.17 99.21 -44.77 98.94 C-44.19 98.96 -43.6 98.98 -43 99 C-43.29 98.44 -43.58 97.88 -43.88 97.3 C-53.8 76.96 -61.3 49.19 -55.89 26.57 C-51.99 15.25 -47.07 7.25 -36.06 1.75 C-35.08 1.25 -34.11 0.75 -33.1 0.23 C-23.17 -3.72 -10.07 -3.29 0 0 Z M-56 48 C-55 50 -55 50 -55 50 Z M-54 61 C-53 63 -53 63 -53 63 Z " fill="#2F2F2F" transform="translate(89,236)"/>
<path d="M0 0 C1.71 1.62 3.38 3.29 5 5 C6.57 6.56 8.13 8.11 9.7 9.67 C14.14 14.08 18.58 18.49 23.01 22.91 C25.69 25.57 28.37 28.24 31.05 30.9 C33.65 33.48 36.25 36.07 38.85 38.66 C39.84 39.64 40.83 40.63 41.82 41.61 C43.2 42.97 44.57 44.35 45.95 45.72 C47.12 46.89 47.12 46.89 48.33 48.08 C50 50 50 50 50 52 C50.64 52.27 51.28 52.54 51.94 52.81 C54 54 54 54 55 57 C56.49 57.5 56.49 57.5 58 58 C60.19 59.94 60.19 59.94 62 62 C62 62.66 62 63.32 62 64 C62.64 64.27 63.28 64.54 63.94 64.81 C66 66 66 66 67 69 C68.49 69.5 68.49 69.5 70 70 C70 70.66 70 71.32 70 72 C71.49 72.5 71.49 72.5 73 73 C74.5 74.56 74.5 74.56 76 76.44 C77.96 78.89 79.32 80.21 82 82 C82 82.66 82 83.32 82 84 C82.99 84.33 83.98 84.66 85 85 C85 85.66 85 86.32 85 87 C85.99 87.33 86.98 87.66 88 88 C89.58 89.64 89.58 89.64 91.25 91.69 C93.53 94.38 95.77 96.77 98.5 99 C101.84 101.75 104.58 104.83 107.38 108.12 C109.46 110.54 111.71 112.77 114 115 C139 140 139 140 141.31 142.38 C143.45 144.46 145.6 146.38 147.88 148.31 C151.39 151.35 154.41 154.62 157.41 158.15 C159.49 160.56 161.72 162.78 164 165 C167.72 168.71 171.42 172.43 175.13 176.16 C178.43 179.46 181.72 182.77 185.02 186.08 C186.76 187.82 188.5 189.57 190.24 191.32 C192.75 193.84 195.27 196.36 197.79 198.89 C198.96 200.06 198.96 200.06 200.15 201.26 C200.87 201.98 201.6 202.71 202.34 203.46 C202.98 204.09 203.61 204.73 204.27 205.39 C206.11 207.19 206.11 207.19 209 209 C208.44 212.24 207.59 213.93 205 216 C204.34 216 203.68 216 203 216 C202.67 216.99 202.34 217.98 202 219 C201.34 219 200.68 219 200 219 C200 219.66 200 220.32 200 221 C198.53 222.45 198.53 222.45 196.5 224.12 C192.65 227.38 189.14 230.85 185.66 234.5 C184 236 184 236 182 236 C181.76 236.58 181.52 237.15 181.27 237.75 C179.75 240.44 178.02 241.98 175.69 244 C171.61 247.59 167.56 251.2 163.56 254.88 C163.02 255.37 162.47 255.87 161.91 256.39 C157.17 260.78 152.63 265.36 148.14 270.02 C146 272 146 272 144 272 C144 272.66 144 273.32 144 274 C143.34 274 142.68 274 142 274 C142 274.66 142 275.32 142 276 C140.39 277.59 140.39 277.59 138.25 279.38 C135.93 281.34 133.75 283.26 131.62 285.44 C130 287 130 287 128 287 C127.74 287.59 127.49 288.19 127.22 288.8 C125.88 291.21 124.56 292.45 122.44 294.19 C119.31 296.83 116.37 299.58 113.5 302.5 C103.01 313.1 103.01 313.1 98.89 314.94 C96.49 316.28 96.18 317.55 95 320 C93.01 321.96 93.01 321.96 90.69 323.94 C86.75 327.34 83.03 330.87 79.44 334.64 C77.99 336.13 76.5 337.57 75 339 C74.34 339 73.68 339 73 339 C72.67 339.99 72.34 340.98 72 342 C70.61 343.37 70.61 343.37 68.75 344.88 C64.79 348.23 61.14 351.81 57.5 355.5 C53.33 359.72 49.13 363.81 44.59 367.63 C42.95 369 42.95 369 41.41 370.68 C40 372 40 372 38 372 C37.73 372.64 37.46 373.28 37.19 373.94 C36 376 36 376 33 377 C32.71 377.58 32.42 378.15 32.12 378.75 C31 381 31 381 28.36 382.89 C25.64 386.47 25.74 387.12 26.17 391.4 C26.49 393.58 26.83 395.76 27.19 397.94 C32.71 437.39 32.71 437.39 24.14 452.22 C21.09 456.18 19.58 457.75 14.57 458.54 C1.01 459.11 -7.95 453.75 -18.49 445.48 C-18.99 444.99 -19.49 444.5 -20 444 C-20 443.34 -20 442.68 -20 442 C-20.57 441.76 -21.14 441.52 -21.73 441.27 C-33.11 434.9 -38.56 420.59 -42.25 408.8 C-43.31 404.85 -43.84 401.08 -44 397 C-44.06 395.74 -44.06 395.74 -44.12 394.46 C-44.5 379.19 -41.61 358.82 -31 347 C-27.78 343.78 -24.26 341 -20.69 338.18 C-15.44 334.03 -10.44 329.71 -5.55 325.15 C-1.34 321.26 3.04 317.63 7.53 314.07 C10.18 311.85 12.57 309.46 15 307 C16.38 305.71 17.78 304.44 19.19 303.19 C19.86 302.58 20.54 301.98 21.23 301.36 C23 300 23 300 25 300 C25.23 299.43 25.45 298.85 25.69 298.26 C27.36 295.37 29.37 293.86 32 291.81 C35.7 288.86 39.31 285.88 42.81 282.69 C51.76 274.55 61.01 266.77 70.41 259.16 C73.09 256.93 75.67 254.61 78.25 252.25 C81.01 249.73 83.74 247.37 86.81 245.25 C89.94 243.04 92.33 240.73 95 238 C98.3 234.96 101.65 231.98 105 229 C105.67 228.4 106.35 227.8 107.04 227.18 C109.94 224.61 112.85 222.12 115.91 219.74 C116.91 218.96 117.91 218.18 118.94 217.38 C119.87 216.66 120.81 215.95 121.78 215.21 C124.25 212.75 124.72 211.42 125 208 C124.11 207.24 123.21 206.48 122.29 205.69 C115.81 200.16 109.37 194.6 103.09 188.84 C101.03 186.96 101.03 186.96 98.73 185.38 C98.16 184.92 97.59 184.47 97 184 C97 183.34 97 182.68 97 182 C96.45 181.76 95.9 181.52 95.34 181.27 C92.45 179.7 90.1 177.78 87.56 175.69 C86.64 174.93 85.71 174.17 84.75 173.39 C82.04 171.03 79.53 168.55 77 166 C76.24 165.44 75.47 164.89 74.69 164.31 C74.13 163.88 73.57 163.45 73 163 C73 162.34 73 161.68 73 161 C72.45 160.76 71.9 160.52 71.34 160.27 C68.45 158.7 66.1 156.78 63.56 154.69 C62.64 153.93 61.71 153.17 60.75 152.39 C58.04 150.03 55.53 147.56 53 145 C46.17 138.44 39.13 132.21 31.75 126.28 C28.21 123.34 24.86 120.23 21.5 117.1 C17.31 113.22 12.94 109.62 8.47 106.07 C5.82 103.85 3.43 101.46 1 99 C-1.08 97.02 -3.2 95.07 -5.31 93.12 C-5.89 92.59 -6.47 92.06 -7.06 91.51 C-12.36 86.65 -17.72 81.89 -23.25 77.3 C-36.31 66.37 -48.99 55.34 -51.32 37.52 C-51.77 27.81 -48.16 19.49 -41.98 12.13 C-30.37 -0.37 -17.03 -6.5 0 0 Z M127 210 C128 212 128 212 128 212 Z " fill="#2F2F2F" transform="translate(875,330)"/>
<path d="M0 0 C1.84 2.45 1.5 4.01 1.25 7.03 C1.16 8.11 1.08 9.19 0.99 10.3 C0.88 11.47 0.77 12.63 0.66 13.84 C0.56 15.05 0.46 16.27 0.35 17.52 C-0.61 28.43 -1.89 39.29 -3.27 50.15 C-3.77 54.2 -4.25 58.25 -4.72 62.31 C-4.81 63.06 -4.9 63.8 -4.99 64.57 C-5.33 67.54 -5.68 70.51 -6.02 73.48 C-8.92 98.44 -8.92 98.44 -10.71 108.52 C-11.57 113.47 -12.13 118.41 -12.65 123.4 C-13.36 130.16 -14.37 136.8 -15.61 143.47 C-16.45 148.04 -17.08 152.59 -17.59 157.21 C-18.44 164.37 -19.74 171.39 -21.15 178.46 C-21.36 179.49 -21.56 180.52 -21.77 181.58 C-23.04 187.78 -24.47 193.91 -26.06 200.03 C-26.68 202.58 -27.16 205.12 -27.59 207.71 C-30.45 221.87 -30.45 221.87 -35.44 226.22 C-37.84 227.4 -40.13 228.06 -42.71 228.71 C-43.85 229.04 -44.99 229.37 -46.16 229.72 C-75.9 237.89 -124.57 243.62 -152.71 227.71 C-154.04 227.04 -155.38 226.37 -156.71 225.71 C-156.71 225.05 -156.71 224.39 -156.71 223.71 C-157.7 223.38 -158.69 223.05 -159.71 222.71 C-163.14 218.8 -164.52 215.54 -164.31 210.43 C-162.88 203.92 -159.33 195.46 -153.71 191.71 C-153.2 190.97 -152.68 190.23 -152.15 189.46 C-143.03 179.18 -127.37 175.46 -114.18 174.53 C-84.63 173.25 -84.63 173.25 -73.71 178.71 C-73.69 178.04 -73.66 177.37 -73.64 176.68 C-73.52 173.63 -73.4 170.58 -73.28 167.52 C-73.24 166.47 -73.2 165.41 -73.16 164.33 C-73.11 163.31 -73.07 162.28 -73.03 161.23 C-72.99 160.29 -72.96 159.36 -72.92 158.39 C-72.72 155.76 -72.25 153.29 -71.71 150.71 C-71.54 148.15 -71.39 145.59 -71.28 143.02 C-70.92 136.1 -70.26 129.25 -69.44 122.36 C-68.89 117.58 -68.52 112.83 -68.28 108.02 C-67.92 101.61 -67.17 95.32 -66.28 88.96 C-64.89 78.98 -64.08 69.02 -63.41 58.97 C-62.93 51.64 -62.37 44.33 -61.65 37.02 C-61.57 36.19 -61.49 35.35 -61.41 34.49 C-60.84 28.83 -60.84 28.83 -59.71 27.71 C-59.51 25.62 -59.37 23.51 -59.25 21.41 C-59.17 20.12 -59.09 18.84 -59.01 17.51 C-58.89 15.46 -58.78 13.4 -58.66 11.35 C-58.55 9.37 -58.43 7.39 -58.31 5.41 C-58.24 4.22 -58.18 3.04 -58.11 1.81 C-57.74 -1.1 -57.3 -2.86 -55.71 -5.29 C-53.51 -6.96 -53.51 -6.96 -50.9 -8.48 C-50.05 -8.99 -49.2 -9.49 -48.32 -10.02 C-33.33 -17.32 -12.47 -9.38 0 0 Z M-62.71 59.71 C-61.71 63.71 -61.71 63.71 -61.71 63.71 Z M-65.71 94.71 C-64.71 97.71 -64.71 97.71 -64.71 97.71 Z M-66.71 99.71 C-66.71 101.36 -66.71 103.01 -66.71 104.71 C-66.38 104.71 -66.05 104.71 -65.71 104.71 C-65.71 103.06 -65.71 101.41 -65.71 99.71 C-66.04 99.71 -66.37 99.71 -66.71 99.71 Z M-67.71 115.71 C-66.71 117.71 -66.71 117.71 -66.71 117.71 Z M-68.71 127.71 C-68.71 129.36 -68.71 131.01 -68.71 132.71 C-68.38 132.71 -68.05 132.71 -67.71 132.71 C-67.71 131.06 -67.71 129.41 -67.71 127.71 C-68.04 127.71 -68.37 127.71 -68.71 127.71 Z M-69.71 133.71 C-69.71 135.36 -69.71 137.01 -69.71 138.71 C-69.38 138.71 -69.05 138.71 -68.71 138.71 C-68.71 137.06 -68.71 135.41 -68.71 133.71 C-69.04 133.71 -69.37 133.71 -69.71 133.71 Z M-71.71 155.71 C-70.71 158.71 -70.71 158.71 -70.71 158.71 Z M-116.71 175.71 C-116.71 176.04 -116.71 176.37 -116.71 176.71 C-114.73 176.71 -112.75 176.71 -110.71 176.71 C-110.71 176.38 -110.71 176.05 -110.71 175.71 C-112.69 175.71 -114.67 175.71 -116.71 175.71 Z M-102.71 175.71 C-102.71 176.04 -102.71 176.37 -102.71 176.71 C-100.07 176.71 -97.43 176.71 -94.71 176.71 C-94.71 176.38 -94.71 176.05 -94.71 175.71 C-97.35 175.71 -99.99 175.71 -102.71 175.71 Z " fill="#2F2F2F" transform="translate(373.713134765625,1044.28857421875)"/>
<path d="M0 0 C2.63 1.79 4.02 2.89 5.5 5.7 C5.8 8.34 5.96 10.81 6 13.45 C6.21 20.61 6.93 27.62 7.89 34.71 C9.59 47.72 10.65 60.75 11.62 73.83 C11.87 77.17 12.13 80.52 12.39 83.86 C12.54 85.91 12.7 87.96 12.85 90.02 C13.2 94.64 13.7 99.13 14.5 103.7 C14.69 105.95 14.85 108.2 15 110.46 C15.08 111.72 15.16 112.99 15.25 114.29 C15.41 116.95 15.58 119.6 15.75 122.25 C15.83 123.51 15.91 124.78 16 126.08 C16.1 127.81 16.1 127.81 16.21 129.57 C16.46 132.36 16.93 134.97 17.5 137.7 C17.67 140.46 17.82 143.2 17.93 145.95 C18.27 152.89 18.89 159.73 19.76 166.62 C20.55 172.97 21.06 179.32 21.5 185.7 C22.44 185.57 22.44 185.57 23.4 185.43 C48.31 181.89 73.59 178.83 95.37 194.09 C103.34 200.13 109.49 207.77 110.97 217.97 C111.12 223.56 110.77 227.04 107.5 231.7 C89.7 248.48 57.7 244.18 35.27 243.58 C20.97 243.07 6.92 241.15 -6.88 237.33 C-7.57 237.14 -8.27 236.96 -8.99 236.77 C-14.42 235.15 -17.56 232.5 -20.76 227.89 C-25.07 219.21 -26.56 209.8 -28.04 200.3 C-28.46 197.6 -28.46 197.6 -29.5 194.7 C-30.79 190.86 -31.34 187 -31.94 183 C-32.36 180.52 -32.86 178.14 -33.44 175.7 C-34.87 169.39 -35.65 162.99 -36.5 156.58 C-36.77 154.64 -36.77 154.64 -37.03 152.67 C-37.75 147.4 -38.45 142.13 -39.14 136.86 C-39.82 131.61 -40.52 126.4 -41.5 121.2 C-43.41 111.04 -44.52 100.81 -45.44 90.52 C-46.05 83.72 -46.86 77 -47.94 70.27 C-49.9 57.98 -50.98 45.6 -52.16 33.23 C-52.64 28.26 -53.16 23.29 -53.69 18.33 C-53.78 17.54 -53.86 16.75 -53.95 15.93 C-54.13 14.19 -54.32 12.45 -54.5 10.7 C-39.89 -1.65 -17.59 -9.25 0 0 Z M-50.5 37.7 C-49.5 41.7 -49.5 41.7 -49.5 41.7 Z M-47.5 63.7 C-46.5 67.7 -46.5 67.7 -46.5 67.7 Z M-44.5 88.7 C-43.5 92.7 -43.5 92.7 -43.5 92.7 Z M-41.5 112.7 C-40.5 115.7 -40.5 115.7 -40.5 115.7 Z M-38.5 135.7 C-37.5 137.7 -37.5 137.7 -37.5 137.7 Z M-35.5 151.7 C-34.5 155.7 -34.5 155.7 -34.5 155.7 Z M-33.5 168.7 C-32.5 170.7 -32.5 170.7 -32.5 170.7 Z M-32.5 171.7 C-31.5 174.7 -31.5 174.7 -31.5 174.7 Z M45.5 183.7 C49.5 184.7 49.5 184.7 49.5 184.7 Z M60.5 183.7 C64.5 184.7 64.5 184.7 64.5 184.7 Z " fill="#2F2F2F" transform="translate(633.50390625,1022.296875)"/>
<path d="M0 0 C-1.83 31.2 -9.29 61.31 -29.98 85.62 C-32.01 87.94 -32.01 87.94 -33.64 90.31 C-34.09 90.87 -34.54 91.43 -35 92 C-35.66 92 -36.32 92 -37 92 C-37.33 92.99 -37.66 93.98 -38 95 C-57.57 112.97 -81.73 122.14 -108.12 122.25 C-109.37 122.27 -110.61 122.29 -111.89 122.31 C-146.67 122.46 -176.63 100.15 -200.44 76.75 C-206.64 70.31 -212.29 63.5 -217.69 56.38 C-218.24 55.65 -218.8 54.93 -219.37 54.18 C-228 42.85 -228 42.85 -228 39 C-213.95 35.88 -199.79 32.77 -185.5 31 C-175.91 29.81 -166.47 27.87 -157 26 C-146.32 23.9 -135.72 21.9 -124.91 20.55 C-116.55 19.37 -108.28 17.63 -100 16 C-89.33 13.9 -78.73 11.89 -67.93 10.56 C-62.23 9.75 -56.61 8.63 -50.97 7.53 C-44.63 6.3 -38.29 5.18 -31.91 4.15 C-27.63 3.46 -23.36 2.7 -19.09 1.89 C-17.59 1.61 -17.59 1.61 -16.06 1.32 C-14.09 0.95 -12.13 0.57 -10.17 0.18 C-9.28 0.01 -8.39 -0.15 -7.47 -0.33 C-6.68 -0.48 -5.89 -0.64 -5.07 -0.79 C-3 -1 -3 -1 0 0 Z " fill="#2F2F2F" transform="translate(656,349)"/>
<path d="M0 0 C12.28 6.41 19.91 17.96 24.2 30.91 C29.17 47.63 28.15 64.6 19.88 80.12 C18.33 82.64 16.74 84.82 14.88 87.12 C14.22 87.12 13.56 87.12 12.88 87.12 C12.38 88.61 12.38 88.61 11.88 90.12 C4.51 94.94 -2.36 95.96 -11.12 95.12 C-18.11 93.33 -23.71 89.8 -29.12 85.12 C-29.73 84.61 -30.34 84.1 -30.96 83.57 C-41.51 73.93 -45.57 59.8 -46.47 45.9 C-46.99 31.63 -43.58 18.58 -34.56 7.38 C-24.64 -3.13 -13.04 -5.89 0 0 Z " fill="#2F2F2F" transform="translate(421.125,188.875)"/>
<path d="M0 0 C10.27 6.58 17.04 17.14 20.66 28.7 C21.01 29.67 21.37 30.64 21.73 31.63 C23.35 37.42 23.02 43.49 23.03 49.45 C23.07 51.27 23.07 51.27 23.11 53.12 C23.14 65.05 20.05 76.26 11.48 84.9 C4.8 91 0.89 93.06 -8.09 93.08 C-8.87 93.1 -9.64 93.13 -10.44 93.15 C-20.63 93.2 -28.13 87.51 -35.34 80.7 C-47.09 67.19 -50.54 50.49 -49.58 33.09 C-48.36 20.81 -42.29 10.09 -33.34 1.77 C-22.81 -6.74 -11.57 -6.29 0 0 Z " fill="#2F2F2F" transform="translate(638.34375,167.296875)"/>
<path d="M0 0 C0.66 0.33 1.32 0.66 2 1 C-1.59 5.36 -6.06 7.09 -11.12 9.25 C-12.36 9.8 -12.36 9.8 -13.62 10.35 C-19.7 13 -19.7 13 -22 13 C-22 12.34 -22 11.68 -22 11 C-10.09 5.04 -10.09 5.04 -7.99 4 C-6.18 3.09 -4.39 2.13 -2.6 1.18 C-1.74 0.79 -0.88 0.4 0 0 Z " fill="#A83722" transform="translate(396,27)"/>
<path d="M0 0 C0.33 0 0.66 0 1 0 C1 5.94 1 11.88 1 18 C0.67 18 0.34 18 0 18 C0 12.06 0 6.12 0 0 Z " fill="#B43B26" transform="translate(174,845)"/>
<path d="M0 0 C2.31 0 4.62 0 7 0 C7 0.33 7 0.66 7 1 C4.69 1 2.38 1 0 1 C0 0.67 0 0.34 0 0 Z " fill="#2F2F2F" transform="translate(71,233)"/>
<path d="" fill="#2F2F2F" transform="translate(0,0)"/>
<path d="" fill="#B43B26" transform="translate(0,0)"/>
<path d="" fill="#2F2F2F" transform="translate(0,0)"/>
<path d="" fill="#2F2F2F" transform="translate(0,0)"/>
<path d="" fill="#2F2F2F" transform="translate(0,0)"/>
<path d="" fill="#2F2F2F" transform="translate(0,0)"/>
</svg>
