<svg width="13" height="10" viewBox="0 0 13 10" fill="none" xmlns="http://www.w3.org/2000/svg">
<path d="M0 4.375V9.6875C0 9.86016 0.145437 10 0.325 10H1.95V3.75H0.65C0.291078 3.75 0 4.02988 0 4.375ZM7.3125 3.4375H6.825V2.65625C6.825 2.56992 6.75228 2.5 6.6625 2.5H6.3375C6.24772 2.5 6.175 2.56992 6.175 2.65625V3.90625C6.175 3.99258 6.24772 4.0625 6.3375 4.0625H7.3125C7.40228 4.0625 7.475 3.99258 7.475 3.90625V3.59375C7.475 3.50742 7.40228 3.4375 7.3125 3.4375ZM10.1105 2.18828L6.86055 0.104884C6.75376 0.0364922 6.62831 0 6.5 0C6.37169 0 6.24624 0.0364922 6.13945 0.104884L2.88945 2.18828C2.80043 2.24535 2.72744 2.32266 2.67695 2.41336C2.62645 2.50405 2.60002 2.60533 2.6 2.7082V10H5.2V7.1875C5.2 7.01484 5.34544 6.875 5.525 6.875H7.475C7.65456 6.875 7.8 7.01484 7.8 7.1875V10H10.4V2.7084C10.4 2.49942 10.2913 2.3041 10.1105 2.18828ZM6.5 5C5.60259 5 4.875 4.30039 4.875 3.4375C4.875 2.57461 5.60259 1.875 6.5 1.875C7.39741 1.875 8.125 2.57461 8.125 3.4375C8.125 4.30039 7.39741 5 6.5 5ZM12.35 3.75H11.05V10H12.675C12.8546 10 13 9.86016 13 9.6875V4.375C13 4.02988 12.7089 3.75 12.35 3.75Z" fill="black"/>
</svg>
