<svg width="15" height="12" viewBox="0 0 15 12" fill="none" xmlns="http://www.w3.org/2000/svg">
<path d="M5.25021 5.99986C6.9073 5.99986 8.25032 4.65692 8.25032 2.99993C8.25032 1.34294 6.9073 0 5.25021 0C3.59311 0 2.25009 1.34294 2.25009 2.99993C2.25009 4.65692 3.59311 5.99986 5.25021 5.99986ZM7.35029 6.74984H6.95887C6.43853 6.9889 5.8596 7.12483 5.25021 7.12483C4.64081 7.12483 4.06422 6.9889 3.54154 6.74984H3.15012C1.41099 6.74984 0 8.16074 0 9.89977V10.8747C0 11.4958 0.503926 11.9997 1.12504 11.9997H7.56826C7.51201 11.8403 7.48857 11.6716 7.50732 11.5005L7.66671 10.0732L7.69483 9.81305L7.88 9.6279L9.69178 7.81622C9.11754 7.16702 8.28548 6.74984 7.35029 6.74984ZM8.41205 10.1552L8.25267 11.5849C8.22688 11.8239 8.42845 12.0255 8.66518 11.9974L10.0926 11.838L13.3247 8.60605L11.6442 6.92562L8.41205 10.1552ZM14.8365 6.30219L13.9482 5.41393C13.7302 5.19597 13.374 5.19597 13.156 5.41393L12.27 6.29985L12.1739 6.39594L13.8568 8.07637L14.8365 7.09671C15.0545 6.8764 15.0545 6.5225 14.8365 6.30219Z" fill="#989DA3"/>
</svg>
