<svg width="14" height="12" viewBox="0 0 14 12" fill="none" xmlns="http://www.w3.org/2000/svg">
<path d="M0.875 11.1429C0.875 11.617 1.26602 12 1.75 12H6.125V7.71429H0.875V11.1429ZM7.875 12H12.25C12.734 12 13.125 11.617 13.125 11.1429V7.71429H7.875V12ZM13.125 3.42857H11.9738C12.1434 3.10446 12.25 2.74554 12.25 2.35714C12.25 1.05804 11.1699 0 9.84375 0C8.70625 0 7.9707 0.570536 7.02734 1.82946C6.08398 0.570536 5.34844 0 4.21094 0C2.88477 0 1.80469 1.05804 1.80469 2.35714C1.80469 2.74554 1.90859 3.10446 2.08086 3.42857H0.875C0.391016 3.42857 0 3.81161 0 4.28571V6.42857C0 6.66429 0.196875 6.85714 0.4375 6.85714H13.5625C13.8031 6.85714 14 6.66429 14 6.42857V4.28571C14 3.81161 13.609 3.42857 13.125 3.42857ZM4.2082 3.42857C3.60391 3.42857 3.11445 2.94911 3.11445 2.35714C3.11445 1.76518 3.60391 1.28571 4.2082 1.28571C4.75234 1.28571 5.1543 1.37411 6.5625 3.42857H4.2082ZM9.84375 3.42857H7.48945C8.89492 1.37946 9.28594 1.28571 9.84375 1.28571C10.448 1.28571 10.9375 1.76518 10.9375 2.35714C10.9375 2.94911 10.448 3.42857 9.84375 3.42857Z" fill="#989DA3"/>
</svg>
